<svg width="294" height="36" viewBox="0 0 294 36" fill="none" xmlns="http://www.w3.org/2000/svg">
<line x1="19" y1="7" x2="69" y2="7" stroke="#1E3348" stroke-width="2"/>
<circle cx="11.5" cy="7.5" r="7.5" fill="#1E3348"/>
<path d="M4.92226 23.311V29.13C4.92226 29.7167 4.74259 30.1897 4.38326 30.549C4.02392 30.901 3.54359 31.077 2.94226 31.077C2.31892 31.077 1.82026 30.89 1.44626 30.516C1.07959 30.1347 0.896258 29.6213 0.896258 28.976H1.67726C1.68459 29.394 1.78726 29.735 1.98526 29.999C2.19059 30.263 2.50959 30.395 2.94226 30.395C3.35292 30.395 3.65726 30.274 3.85526 30.032C4.05326 29.79 4.15226 29.4893 4.15226 29.13V23.311H4.92226ZM9.48752 31.088C8.92285 31.088 8.41318 30.9633 7.95852 30.714C7.51118 30.4573 7.15552 30.098 6.89152 29.636C6.63485 29.1667 6.50652 28.6203 6.50652 27.997C6.50652 27.3737 6.63852 26.831 6.90252 26.369C7.16652 25.8997 7.52585 25.5403 7.98052 25.291C8.43518 25.0343 8.94485 24.906 9.50952 24.906C10.0742 24.906 10.5838 25.0343 11.0385 25.291C11.5005 25.5403 11.8598 25.8997 12.1165 26.369C12.3805 26.831 12.5125 27.3737 12.5125 27.997C12.5125 28.613 12.3805 29.1557 12.1165 29.625C11.8525 30.0943 11.4895 30.4573 11.0275 30.714C10.5655 30.9633 10.0522 31.088 9.48752 31.088ZM9.48752 30.417C9.88352 30.417 10.2502 30.329 10.5875 30.153C10.9248 29.9697 11.1962 29.6983 11.4015 29.339C11.6142 28.9723 11.7205 28.525 11.7205 27.997C11.7205 27.469 11.6178 27.0253 11.4125 26.666C11.2072 26.2993 10.9358 26.028 10.5985 25.852C10.2612 25.6687 9.89452 25.577 9.49852 25.577C9.10252 25.577 8.73585 25.6687 8.39852 25.852C8.06118 26.028 7.78985 26.2993 7.58452 26.666C7.38652 27.0253 7.28752 27.469 7.28752 27.997C7.28752 28.525 7.38652 28.9723 7.58452 29.339C7.78985 29.6983 8.05752 29.9697 8.38752 30.153C8.72485 30.329 9.09152 30.417 9.48752 30.417ZM14.3011 23.861C14.1471 23.861 14.0151 23.806 13.9051 23.696C13.7951 23.586 13.7401 23.4503 13.7401 23.289C13.7401 23.1277 13.7951 22.9957 13.9051 22.893C14.0151 22.783 14.1471 22.728 14.3011 22.728C14.4551 22.728 14.5871 22.783 14.6971 22.893C14.8071 22.9957 14.8621 23.1277 14.8621 23.289C14.8621 23.4503 14.8071 23.586 14.6971 23.696C14.5871 23.806 14.4551 23.861 14.3011 23.861ZM14.6861 24.994V31H13.9161V24.994H14.6861ZM19.2458 24.884C19.9645 24.884 20.5511 25.1077 21.0058 25.555C21.4605 25.995 21.6878 26.6367 21.6878 27.48V31H20.9288V27.568C20.9288 26.9153 20.7638 26.4167 20.4338 26.072C20.1111 25.7273 19.6675 25.555 19.1028 25.555C18.5235 25.555 18.0615 25.7383 17.7168 26.105C17.3721 26.4717 17.1998 27.0107 17.1998 27.722V31H16.4298V24.994H17.1998V26.017C17.3905 25.6503 17.6655 25.3717 18.0248 25.181C18.3841 24.983 18.7911 24.884 19.2458 24.884Z" fill="black"/>
<line x1="84" y1="7" x2="134" y2="7" stroke="#1E3348" stroke-width="2"/>
<circle cx="76.5" cy="7.5" r="7.5" fill="#1E3348"/>
<path d="M58.3928 23.311C59.2435 23.311 59.9732 23.465 60.5818 23.773C61.1905 24.081 61.6562 24.5247 61.9788 25.104C62.3015 25.6833 62.4628 26.3727 62.4628 27.172C62.4628 27.964 62.3015 28.6497 61.9788 29.229C61.6562 29.801 61.1905 30.241 60.5818 30.549C59.9732 30.8497 59.2435 31 58.3928 31H56.1158V23.311H58.3928ZM58.3928 30.362C59.4635 30.362 60.2775 30.0833 60.8348 29.526C61.3995 28.9613 61.6818 28.1767 61.6818 27.172C61.6818 26.16 61.3995 25.3717 60.8348 24.807C60.2775 24.235 59.4635 23.949 58.3928 23.949H56.8858V30.362H58.3928ZM64.2674 23.861C64.1134 23.861 63.9814 23.806 63.8714 23.696C63.7614 23.586 63.7064 23.4503 63.7064 23.289C63.7064 23.1277 63.7614 22.9957 63.8714 22.893C63.9814 22.783 64.1134 22.728 64.2674 22.728C64.4214 22.728 64.5534 22.783 64.6634 22.893C64.7734 22.9957 64.8284 23.1277 64.8284 23.289C64.8284 23.4503 64.7734 23.586 64.6634 23.696C64.5534 23.806 64.4214 23.861 64.2674 23.861ZM64.6524 24.994V31H63.8824V24.994H64.6524ZM67.1551 26.325C67.3531 25.907 67.6574 25.566 68.0681 25.302C68.4861 25.038 68.9774 24.906 69.5421 24.906C70.0921 24.906 70.5834 25.0343 71.0161 25.291C71.4488 25.5403 71.7861 25.8997 72.0281 26.369C72.2774 26.831 72.4021 27.37 72.4021 27.986C72.4021 28.602 72.2774 29.1447 72.0281 29.614C71.7861 30.0833 71.4451 30.4463 71.0051 30.703C70.5724 30.9597 70.0848 31.088 69.5421 31.088C68.9701 31.088 68.4751 30.9597 68.0571 30.703C67.6464 30.439 67.3458 30.098 67.1551 29.68V31H66.3961V22.86H67.1551V26.325ZM71.6211 27.986C71.6211 27.4873 71.5221 27.0583 71.3241 26.699C71.1334 26.3323 70.8694 26.0537 70.5321 25.863C70.1948 25.6723 69.8134 25.577 69.3881 25.577C68.9774 25.577 68.5998 25.676 68.2551 25.874C67.9178 26.072 67.6501 26.3543 67.4521 26.721C67.2541 27.0877 67.1551 27.513 67.1551 27.997C67.1551 28.481 67.2541 28.9063 67.4521 29.273C67.6501 29.6397 67.9178 29.922 68.2551 30.12C68.5998 30.318 68.9774 30.417 69.3881 30.417C69.8134 30.417 70.1948 30.3217 70.5321 30.131C70.8694 29.933 71.1334 29.6507 71.3241 29.284C71.5221 28.91 71.6211 28.4773 71.6211 27.986ZM73.467 27.986C73.467 27.37 73.588 26.831 73.83 26.369C74.0793 25.8997 74.4203 25.5403 74.853 25.291C75.293 25.0343 75.788 24.906 76.338 24.906C76.91 24.906 77.4013 25.038 77.812 25.302C78.23 25.566 78.5306 25.9033 78.714 26.314V24.994H79.484V31H78.714V29.669C78.5233 30.0797 78.219 30.4207 77.801 30.692C77.3903 30.956 76.899 31.088 76.327 31.088C75.7843 31.088 75.293 30.9597 74.853 30.703C74.4203 30.4463 74.0793 30.0833 73.83 29.614C73.588 29.1447 73.467 28.602 73.467 27.986ZM78.714 27.997C78.714 27.513 78.615 27.0877 78.417 26.721C78.219 26.3543 77.9476 26.072 77.603 25.874C77.2656 25.676 76.8916 25.577 76.481 25.577C76.0556 25.577 75.6743 25.6723 75.337 25.863C74.9996 26.0537 74.732 26.3323 74.534 26.699C74.3433 27.0583 74.248 27.4873 74.248 27.986C74.248 28.4773 74.3433 28.91 74.534 29.284C74.732 29.6507 74.9996 29.933 75.337 30.131C75.6743 30.3217 76.0556 30.417 76.481 30.417C76.8916 30.417 77.2656 30.318 77.603 30.12C77.9476 29.922 78.219 29.6397 78.417 29.273C78.615 28.9063 78.714 28.481 78.714 27.997ZM86.1918 24.994L82.6278 33.827H81.8248L82.9908 30.967L80.5268 24.994H81.3738L83.4198 30.12L85.3998 24.994H86.1918ZM86.884 27.986C86.884 27.37 87.005 26.831 87.247 26.369C87.4963 25.8997 87.8373 25.5403 88.27 25.291C88.71 25.0343 89.205 24.906 89.755 24.906C90.327 24.906 90.8183 25.038 91.229 25.302C91.647 25.566 91.9476 25.9033 92.131 26.314V24.994H92.901V31H92.131V29.669C91.9403 30.0797 91.636 30.4207 91.218 30.692C90.8073 30.956 90.316 31.088 89.744 31.088C89.2013 31.088 88.71 30.9597 88.27 30.703C87.8373 30.4463 87.4963 30.0833 87.247 29.614C87.005 29.1447 86.884 28.602 86.884 27.986ZM92.131 27.997C92.131 27.513 92.032 27.0877 91.834 26.721C91.636 26.3543 91.3646 26.072 91.02 25.874C90.6826 25.676 90.3086 25.577 89.898 25.577C89.4726 25.577 89.0913 25.6723 88.754 25.863C88.4166 26.0537 88.149 26.3323 87.951 26.699C87.7603 27.0583 87.665 27.4873 87.665 27.986C87.665 28.4773 87.7603 28.91 87.951 29.284C88.149 29.6507 88.4166 29.933 88.754 30.131C89.0913 30.3217 89.4726 30.417 89.898 30.417C90.3086 30.417 90.6826 30.318 91.02 30.12C91.3646 29.922 91.636 29.6397 91.834 29.273C92.032 28.9063 92.131 28.481 92.131 27.997ZM95.4288 26.061C95.5975 25.687 95.8541 25.3973 96.1988 25.192C96.5508 24.9867 96.9798 24.884 97.4858 24.884V25.687H97.2768C96.7195 25.687 96.2721 25.8373 95.9348 26.138C95.5975 26.4387 95.4288 26.941 95.4288 27.645V31H94.6588V24.994H95.4288V26.061Z" fill="black"/>
<line x1="149" y1="7" x2="199" y2="7" stroke="#1E3348" stroke-width="2"/>
<circle cx="141.5" cy="7.5" r="7.5" fill="#1E3348"/>
<path d="M121.255 23.311C122.106 23.311 122.835 23.465 123.444 23.773C124.053 24.081 124.518 24.5247 124.841 25.104C125.164 25.6833 125.325 26.3727 125.325 27.172C125.325 27.964 125.164 28.6497 124.841 29.229C124.518 29.801 124.053 30.241 123.444 30.549C122.835 30.8497 122.106 31 121.255 31H118.978V23.311H121.255ZM121.255 30.362C122.326 30.362 123.14 30.0833 123.697 29.526C124.262 28.9613 124.544 28.1767 124.544 27.172C124.544 26.16 124.262 25.3717 123.697 24.807C123.14 24.235 122.326 23.949 121.255 23.949H119.748V30.362H121.255ZM127.13 23.861C126.976 23.861 126.844 23.806 126.734 23.696C126.624 23.586 126.569 23.4503 126.569 23.289C126.569 23.1277 126.624 22.9957 126.734 22.893C126.844 22.783 126.976 22.728 127.13 22.728C127.284 22.728 127.416 22.783 127.526 22.893C127.636 22.9957 127.691 23.1277 127.691 23.289C127.691 23.4503 127.636 23.586 127.526 23.696C127.416 23.806 127.284 23.861 127.13 23.861ZM127.515 24.994V31H126.745V24.994H127.515ZM130.017 26.314C130.208 25.9107 130.509 25.577 130.919 25.313C131.337 25.0417 131.832 24.906 132.404 24.906C132.947 24.906 133.435 25.0343 133.867 25.291C134.307 25.5403 134.648 25.8997 134.89 26.369C135.14 26.831 135.264 27.37 135.264 27.986C135.264 28.602 135.14 29.1447 134.89 29.614C134.648 30.0833 134.307 30.4463 133.867 30.703C133.435 30.9597 132.947 31.088 132.404 31.088C131.84 31.088 131.348 30.956 130.93 30.692C130.512 30.4207 130.208 30.0833 130.017 29.68V33.838H129.258V24.994H130.017V26.314ZM134.483 27.986C134.483 27.4873 134.384 27.0583 134.186 26.699C133.996 26.3323 133.732 26.0537 133.394 25.863C133.057 25.6723 132.676 25.577 132.25 25.577C131.84 25.577 131.462 25.676 131.117 25.874C130.78 26.072 130.512 26.3543 130.314 26.721C130.116 27.0877 130.017 27.513 130.017 27.997C130.017 28.481 130.116 28.9063 130.314 29.273C130.512 29.6397 130.78 29.922 131.117 30.12C131.462 30.318 131.84 30.417 132.25 30.417C132.676 30.417 133.057 30.3217 133.394 30.131C133.732 29.933 133.996 29.6507 134.186 29.284C134.384 28.91 134.483 28.4773 134.483 27.986ZM137.451 26.061C137.62 25.687 137.877 25.3973 138.221 25.192C138.573 24.9867 139.002 24.884 139.508 24.884V25.687H139.299C138.742 25.687 138.295 25.8373 137.957 26.138C137.62 26.4387 137.451 26.941 137.451 27.645V31H136.681V24.994H137.451V26.061ZM143.296 31.088C142.731 31.088 142.221 30.9633 141.767 30.714C141.319 30.4573 140.964 30.098 140.7 29.636C140.443 29.1667 140.315 28.6203 140.315 27.997C140.315 27.3737 140.447 26.831 140.711 26.369C140.975 25.8997 141.334 25.5403 141.789 25.291C142.243 25.0343 142.753 24.906 143.318 24.906C143.882 24.906 144.392 25.0343 144.847 25.291C145.309 25.5403 145.668 25.8997 145.925 26.369C146.189 26.831 146.321 27.3737 146.321 27.997C146.321 28.613 146.189 29.1557 145.925 29.625C145.661 30.0943 145.298 30.4573 144.836 30.714C144.374 30.9633 143.86 31.088 143.296 31.088ZM143.296 30.417C143.692 30.417 144.058 30.329 144.396 30.153C144.733 29.9697 145.004 29.6983 145.21 29.339C145.422 28.9723 145.529 28.525 145.529 27.997C145.529 27.469 145.426 27.0253 145.221 26.666C145.015 26.2993 144.744 26.028 144.407 25.852C144.069 25.6687 143.703 25.577 143.307 25.577C142.911 25.577 142.544 25.6687 142.207 25.852C141.869 26.028 141.598 26.2993 141.393 26.666C141.195 27.0253 141.096 27.469 141.096 27.997C141.096 28.525 141.195 28.9723 141.393 29.339C141.598 29.6983 141.866 29.9697 142.196 30.153C142.533 30.329 142.9 30.417 143.296 30.417ZM149.792 31.088C149.103 31.088 148.538 30.9303 148.098 30.615C147.666 30.2923 147.424 29.856 147.372 29.306H148.164C148.201 29.6433 148.359 29.9183 148.637 30.131C148.923 30.3363 149.305 30.439 149.781 30.439C150.199 30.439 150.526 30.34 150.76 30.142C151.002 29.944 151.123 29.6983 151.123 29.405C151.123 29.1997 151.057 29.031 150.925 28.899C150.793 28.767 150.625 28.6643 150.419 28.591C150.221 28.5103 149.95 28.426 149.605 28.338C149.158 28.2207 148.795 28.1033 148.516 27.986C148.238 27.8687 147.999 27.6963 147.801 27.469C147.611 27.2343 147.515 26.9227 147.515 26.534C147.515 26.2407 147.603 25.9693 147.779 25.72C147.955 25.4707 148.205 25.2727 148.527 25.126C148.85 24.9793 149.217 24.906 149.627 24.906C150.273 24.906 150.793 25.071 151.189 25.401C151.585 25.7237 151.798 26.171 151.827 26.743H151.057C151.035 26.391 150.896 26.1087 150.639 25.896C150.39 25.676 150.045 25.566 149.605 25.566C149.217 25.566 148.901 25.6577 148.659 25.841C148.417 26.0243 148.296 26.2517 148.296 26.523C148.296 26.7577 148.366 26.952 148.505 27.106C148.652 27.2527 148.832 27.37 149.044 27.458C149.257 27.5387 149.543 27.6303 149.902 27.733C150.335 27.8503 150.68 27.964 150.936 28.074C151.193 28.184 151.413 28.3453 151.596 28.558C151.78 28.7707 151.875 29.053 151.882 29.405C151.882 29.7277 151.794 30.0173 151.618 30.274C151.442 30.5233 151.197 30.7213 150.881 30.868C150.566 31.0147 150.203 31.088 149.792 31.088ZM158.766 27.689C158.766 27.953 158.758 28.1547 158.744 28.294H153.761C153.783 28.7487 153.893 29.1373 154.091 29.46C154.289 29.7827 154.549 30.0283 154.872 30.197C155.194 30.3583 155.546 30.439 155.928 30.439C156.426 30.439 156.844 30.318 157.182 30.076C157.526 29.834 157.754 29.5077 157.864 29.097H158.678C158.531 29.6837 158.216 30.164 157.732 30.538C157.255 30.9047 156.654 31.088 155.928 31.088C155.363 31.088 154.857 30.9633 154.41 30.714C153.962 30.4573 153.61 30.098 153.354 29.636C153.104 29.1667 152.98 28.6203 152.98 27.997C152.98 27.3737 153.104 26.8273 153.354 26.358C153.603 25.8887 153.951 25.5293 154.399 25.28C154.846 25.0307 155.356 24.906 155.928 24.906C156.5 24.906 156.998 25.0307 157.424 25.28C157.856 25.5293 158.186 25.8667 158.414 26.292C158.648 26.71 158.766 27.1757 158.766 27.689ZM157.985 27.667C157.992 27.2197 157.9 26.8383 157.71 26.523C157.526 26.2077 157.273 25.9693 156.951 25.808C156.628 25.6467 156.276 25.566 155.895 25.566C155.323 25.566 154.835 25.7493 154.432 26.116C154.028 26.4827 153.805 26.9997 153.761 27.667H157.985ZM162.242 31.088C161.553 31.088 160.988 30.9303 160.548 30.615C160.116 30.2923 159.874 29.856 159.822 29.306H160.614C160.651 29.6433 160.809 29.9183 161.087 30.131C161.373 30.3363 161.755 30.439 162.231 30.439C162.649 30.439 162.976 30.34 163.21 30.142C163.452 29.944 163.573 29.6983 163.573 29.405C163.573 29.1997 163.507 29.031 163.375 28.899C163.243 28.767 163.075 28.6643 162.869 28.591C162.671 28.5103 162.4 28.426 162.055 28.338C161.608 28.2207 161.245 28.1033 160.966 27.986C160.688 27.8687 160.449 27.6963 160.251 27.469C160.061 27.2343 159.965 26.9227 159.965 26.534C159.965 26.2407 160.053 25.9693 160.229 25.72C160.405 25.4707 160.655 25.2727 160.977 25.126C161.3 24.9793 161.667 24.906 162.077 24.906C162.723 24.906 163.243 25.071 163.639 25.401C164.035 25.7237 164.248 26.171 164.277 26.743H163.507C163.485 26.391 163.346 26.1087 163.089 25.896C162.84 25.676 162.495 25.566 162.055 25.566C161.667 25.566 161.351 25.6577 161.109 25.841C160.867 26.0243 160.746 26.2517 160.746 26.523C160.746 26.7577 160.816 26.952 160.955 27.106C161.102 27.2527 161.282 27.37 161.494 27.458C161.707 27.5387 161.993 27.6303 162.352 27.733C162.785 27.8503 163.13 27.964 163.386 28.074C163.643 28.184 163.863 28.3453 164.046 28.558C164.23 28.7707 164.325 29.053 164.332 29.405C164.332 29.7277 164.244 30.0173 164.068 30.274C163.892 30.5233 163.647 30.7213 163.331 30.868C163.016 31.0147 162.653 31.088 162.242 31.088Z" fill="black"/>
<line x1="214" y1="7" x2="264" y2="7" stroke="#D3E3FD" stroke-width="2"/>
<circle cx="206.5" cy="7.5" r="7.5" fill="#D3E3FD"/>
<path d="M191.744 23.311C192.595 23.311 193.325 23.465 193.933 23.773C194.542 24.081 195.008 24.5247 195.33 25.104C195.653 25.6833 195.814 26.3727 195.814 27.172C195.814 27.964 195.653 28.6497 195.33 29.229C195.008 29.801 194.542 30.241 193.933 30.549C193.325 30.8497 192.595 31 191.744 31H189.467V23.311H191.744ZM191.744 30.362C192.815 30.362 193.629 30.0833 194.186 29.526C194.751 28.9613 195.033 28.1767 195.033 27.172C195.033 26.16 194.751 25.3717 194.186 24.807C193.629 24.235 192.815 23.949 191.744 23.949H190.237V30.362H191.744ZM197.619 23.861C197.465 23.861 197.333 23.806 197.223 23.696C197.113 23.586 197.058 23.4503 197.058 23.289C197.058 23.1277 197.113 22.9957 197.223 22.893C197.333 22.783 197.465 22.728 197.619 22.728C197.773 22.728 197.905 22.783 198.015 22.893C198.125 22.9957 198.18 23.1277 198.18 23.289C198.18 23.4503 198.125 23.586 198.015 23.696C197.905 23.806 197.773 23.861 197.619 23.861ZM198.004 24.994V31H197.234V24.994H198.004ZM202.993 31L200.518 28.305V31H199.748V22.86H200.518V27.678L202.938 24.994H204.016L201.167 27.986L204.038 31H202.993ZM205.418 23.861C205.264 23.861 205.132 23.806 205.022 23.696C204.912 23.586 204.857 23.4503 204.857 23.289C204.857 23.1277 204.912 22.9957 205.022 22.893C205.132 22.783 205.264 22.728 205.418 22.728C205.572 22.728 205.704 22.783 205.814 22.893C205.924 22.9957 205.979 23.1277 205.979 23.289C205.979 23.4503 205.924 23.586 205.814 23.696C205.704 23.806 205.572 23.861 205.418 23.861ZM205.803 24.994V31H205.033V24.994H205.803ZM208.317 26.061C208.485 25.687 208.742 25.3973 209.087 25.192C209.439 24.9867 209.868 24.884 210.374 24.884V25.687H210.165C209.607 25.687 209.16 25.8373 208.823 26.138C208.485 26.4387 208.317 26.941 208.317 27.645V31H207.547V24.994H208.317V26.061ZM211.917 23.861C211.763 23.861 211.631 23.806 211.521 23.696C211.411 23.586 211.356 23.4503 211.356 23.289C211.356 23.1277 211.411 22.9957 211.521 22.893C211.631 22.783 211.763 22.728 211.917 22.728C212.071 22.728 212.203 22.783 212.313 22.893C212.423 22.9957 212.478 23.1277 212.478 23.289C212.478 23.4503 212.423 23.586 212.313 23.696C212.203 23.806 212.071 23.861 211.917 23.861ZM212.302 24.994V31H211.532V24.994H212.302ZM221.196 24.884C221.9 24.884 222.472 25.1077 222.912 25.555C223.359 25.995 223.583 26.6367 223.583 27.48V31H222.824V27.568C222.824 26.9153 222.666 26.4167 222.351 26.072C222.035 25.7273 221.606 25.555 221.064 25.555C220.499 25.555 220.048 25.742 219.711 26.116C219.373 26.49 219.205 27.0327 219.205 27.744V31H218.446V27.568C218.446 26.9153 218.288 26.4167 217.973 26.072C217.657 25.7273 217.225 25.555 216.675 25.555C216.11 25.555 215.659 25.742 215.322 26.116C214.984 26.49 214.816 27.0327 214.816 27.744V31H214.046V24.994H214.816V26.028C215.006 25.654 215.278 25.3717 215.63 25.181C215.982 24.983 216.374 24.884 216.807 24.884C217.327 24.884 217.782 25.0087 218.171 25.258C218.567 25.5073 218.853 25.874 219.029 26.358C219.19 25.8813 219.465 25.5183 219.854 25.269C220.25 25.0123 220.697 24.884 221.196 24.884Z" fill="black"/>
<circle cx="270.5" cy="7.5" r="7.5" fill="#D3E3FD"/>
<path d="M254.693 31.077C254.187 31.077 253.74 30.989 253.351 30.813C252.97 30.637 252.669 30.3913 252.449 30.076C252.229 29.7607 252.112 29.4087 252.097 29.02H252.911C252.948 29.394 253.113 29.724 253.406 30.01C253.699 30.2887 254.128 30.428 254.693 30.428C255.214 30.428 255.624 30.296 255.925 30.032C256.233 29.7607 256.387 29.4197 256.387 29.009C256.387 28.679 256.303 28.415 256.134 28.217C255.965 28.0117 255.756 27.8613 255.507 27.766C255.258 27.6633 254.913 27.5533 254.473 27.436C253.96 27.2967 253.553 27.161 253.252 27.029C252.951 26.897 252.695 26.6917 252.482 26.413C252.269 26.1343 252.163 25.7567 252.163 25.28C252.163 24.884 252.266 24.532 252.471 24.224C252.676 23.9087 252.966 23.663 253.34 23.487C253.714 23.311 254.143 23.223 254.627 23.223C255.338 23.223 255.91 23.399 256.343 23.751C256.783 24.0957 257.036 24.543 257.102 25.093H256.266C256.215 24.7777 256.042 24.499 255.749 24.257C255.456 24.0077 255.06 23.883 254.561 23.883C254.099 23.883 253.714 24.0077 253.406 24.257C253.098 24.499 252.944 24.8327 252.944 25.258C252.944 25.5807 253.028 25.841 253.197 26.039C253.366 26.237 253.575 26.3873 253.824 26.49C254.081 26.5927 254.425 26.7027 254.858 26.82C255.357 26.9593 255.76 27.0987 256.068 27.238C256.376 27.37 256.636 27.5753 256.849 27.854C257.062 28.1327 257.168 28.5067 257.168 28.976C257.168 29.3353 257.073 29.6763 256.882 29.999C256.691 30.3217 256.409 30.582 256.035 30.78C255.661 30.978 255.214 31.077 254.693 31.077ZM264.09 27.689C264.09 27.953 264.083 28.1547 264.068 28.294H259.085C259.107 28.7487 259.217 29.1373 259.415 29.46C259.613 29.7827 259.873 30.0283 260.196 30.197C260.519 30.3583 260.871 30.439 261.252 30.439C261.751 30.439 262.169 30.318 262.506 30.076C262.851 29.834 263.078 29.5077 263.188 29.097H264.002C263.855 29.6837 263.54 30.164 263.056 30.538C262.579 30.9047 261.978 31.088 261.252 31.088C260.687 31.088 260.181 30.9633 259.734 30.714C259.287 30.4573 258.935 30.098 258.678 29.636C258.429 29.1667 258.304 28.6203 258.304 27.997C258.304 27.3737 258.429 26.8273 258.678 26.358C258.927 25.8887 259.276 25.5293 259.723 25.28C260.17 25.0307 260.68 24.906 261.252 24.906C261.824 24.906 262.323 25.0307 262.748 25.28C263.181 25.5293 263.511 25.8667 263.738 26.292C263.973 26.71 264.09 27.1757 264.09 27.689ZM263.309 27.667C263.316 27.2197 263.225 26.8383 263.034 26.523C262.851 26.2077 262.598 25.9693 262.275 25.808C261.952 25.6467 261.6 25.566 261.219 25.566C260.647 25.566 260.159 25.7493 259.756 26.116C259.353 26.4827 259.129 26.9997 259.085 27.667H263.309ZM266.269 22.86V31H265.499V22.86H266.269ZM273.446 27.689C273.446 27.953 273.439 28.1547 273.424 28.294H268.441C268.463 28.7487 268.573 29.1373 268.771 29.46C268.969 29.7827 269.23 30.0283 269.552 30.197C269.875 30.3583 270.227 30.439 270.608 30.439C271.107 30.439 271.525 30.318 271.862 30.076C272.207 29.834 272.434 29.5077 272.544 29.097H273.358C273.212 29.6837 272.896 30.164 272.412 30.538C271.936 30.9047 271.334 31.088 270.608 31.088C270.044 31.088 269.538 30.9633 269.09 30.714C268.643 30.4573 268.291 30.098 268.034 29.636C267.785 29.1667 267.66 28.6203 267.66 27.997C267.66 27.3737 267.785 26.8273 268.034 26.358C268.284 25.8887 268.632 25.5293 269.079 25.28C269.527 25.0307 270.036 24.906 270.608 24.906C271.18 24.906 271.679 25.0307 272.104 25.28C272.537 25.5293 272.867 25.8667 273.094 26.292C273.329 26.71 273.446 27.1757 273.446 27.689ZM272.665 27.667C272.673 27.2197 272.581 26.8383 272.39 26.523C272.207 26.2077 271.954 25.9693 271.631 25.808C271.309 25.6467 270.957 25.566 270.575 25.566C270.003 25.566 269.516 25.7493 269.112 26.116C268.709 26.4827 268.485 26.9997 268.441 27.667H272.665ZM276.923 31.088C276.234 31.088 275.669 30.9303 275.229 30.615C274.796 30.2923 274.554 29.856 274.503 29.306H275.295C275.332 29.6433 275.489 29.9183 275.768 30.131C276.054 30.3363 276.435 30.439 276.912 30.439C277.33 30.439 277.656 30.34 277.891 30.142C278.133 29.944 278.254 29.6983 278.254 29.405C278.254 29.1997 278.188 29.031 278.056 28.899C277.924 28.767 277.755 28.6643 277.55 28.591C277.352 28.5103 277.081 28.426 276.736 28.338C276.289 28.2207 275.926 28.1033 275.647 27.986C275.368 27.8687 275.13 27.6963 274.932 27.469C274.741 27.2343 274.646 26.9227 274.646 26.534C274.646 26.2407 274.734 25.9693 274.91 25.72C275.086 25.4707 275.335 25.2727 275.658 25.126C275.981 24.9793 276.347 24.906 276.758 24.906C277.403 24.906 277.924 25.071 278.32 25.401C278.716 25.7237 278.929 26.171 278.958 26.743H278.188C278.166 26.391 278.027 26.1087 277.77 25.896C277.521 25.676 277.176 25.566 276.736 25.566C276.347 25.566 276.032 25.6577 275.79 25.841C275.548 26.0243 275.427 26.2517 275.427 26.523C275.427 26.7577 275.497 26.952 275.636 27.106C275.783 27.2527 275.962 27.37 276.175 27.458C276.388 27.5387 276.674 27.6303 277.033 27.733C277.466 27.8503 277.81 27.964 278.067 28.074C278.324 28.184 278.544 28.3453 278.727 28.558C278.91 28.7707 279.006 29.053 279.013 29.405C279.013 29.7277 278.925 30.0173 278.749 30.274C278.573 30.5233 278.327 30.7213 278.012 30.868C277.697 31.0147 277.334 31.088 276.923 31.088ZM280.111 27.986C280.111 27.37 280.232 26.831 280.474 26.369C280.723 25.8997 281.064 25.5403 281.497 25.291C281.937 25.0343 282.432 24.906 282.982 24.906C283.554 24.906 284.045 25.038 284.456 25.302C284.874 25.566 285.174 25.9033 285.358 26.314V24.994H286.128V31H285.358V29.669C285.167 30.0797 284.863 30.4207 284.445 30.692C284.034 30.956 283.543 31.088 282.971 31.088C282.428 31.088 281.937 30.9597 281.497 30.703C281.064 30.4463 280.723 30.0833 280.474 29.614C280.232 29.1447 280.111 28.602 280.111 27.986ZM285.358 27.997C285.358 27.513 285.259 27.0877 285.061 26.721C284.863 26.3543 284.591 26.072 284.247 25.874C283.909 25.676 283.535 25.577 283.125 25.577C282.699 25.577 282.318 25.6723 281.981 25.863C281.643 26.0537 281.376 26.3323 281.178 26.699C280.987 27.0583 280.892 27.4873 280.892 27.986C280.892 28.4773 280.987 28.91 281.178 29.284C281.376 29.6507 281.643 29.933 281.981 30.131C282.318 30.3217 282.699 30.417 283.125 30.417C283.535 30.417 283.909 30.318 284.247 30.12C284.591 29.922 284.863 29.6397 285.061 29.273C285.259 28.9063 285.358 28.481 285.358 27.997ZM288.27 23.861C288.116 23.861 287.984 23.806 287.874 23.696C287.764 23.586 287.709 23.4503 287.709 23.289C287.709 23.1277 287.764 22.9957 287.874 22.893C287.984 22.783 288.116 22.728 288.27 22.728C288.424 22.728 288.556 22.783 288.666 22.893C288.776 22.9957 288.831 23.1277 288.831 23.289C288.831 23.4503 288.776 23.586 288.666 23.696C288.556 23.806 288.424 23.861 288.27 23.861ZM288.655 24.994V31H287.885V24.994H288.655Z" fill="black"/>
</svg>
