<svg width="159" height="141" viewBox="0 0 159 141" fill="none" xmlns="http://www.w3.org/2000/svg">
<path d="M130.247 90.9762H91.4932C90.6629 90.9762 89.9897 91.6413 89.9897 92.4616V119.453C89.9897 120.273 90.6629 120.938 91.4932 120.938H130.247C131.077 120.938 131.751 120.273 131.751 119.453V92.4616C131.751 91.6413 131.077 90.9762 130.247 90.9762Z" fill="#EB5B65"/>
<path d="M128.293 92.3788H93.4496C92.6193 92.3788 91.9462 93.0439 91.9462 93.8643V118.05C91.9462 118.87 92.6193 119.535 93.4496 119.535H128.293C129.123 119.535 129.796 118.87 129.796 118.05V93.8643C129.796 93.0439 129.123 92.3788 128.293 92.3788Z" fill="#EB5B65"/>
<path d="M148.777 120.938H134.796C134.396 120.938 134 120.86 133.631 120.709C133.261 120.558 132.926 120.336 132.643 120.057C132.361 119.777 132.136 119.446 131.984 119.081C131.831 118.716 131.752 118.324 131.752 117.929V96.3913C131.752 96.1977 131.791 96.0059 131.867 95.8274C131.943 95.6489 132.054 95.4873 132.194 95.3518C132.335 95.2162 132.501 95.1098 132.683 95.0386C132.865 94.9673 133.06 94.9327 133.256 94.9369L141.033 95.0057C141.242 95.0104 141.447 95.0587 141.636 95.1477C141.825 95.2367 141.992 95.3644 142.127 95.5221L151.548 106.538C153.04 108.055 153.874 110.086 153.872 112.201V115.902C153.873 116.563 153.741 117.218 153.485 117.829C153.229 118.44 152.854 118.996 152.381 119.463C151.908 119.931 151.346 120.302 150.727 120.555C150.109 120.808 149.446 120.938 148.777 120.938Z" fill="#EB5B65"/>
<path d="M110.869 114.645C115.725 114.645 119.662 110.756 119.662 105.958C119.662 101.16 115.725 97.271 110.869 97.271C106.013 97.271 102.076 101.16 102.076 105.958C102.076 110.756 106.013 114.645 110.869 114.645Z" fill="#D3E3FD"/>
<path d="M134.796 105.903V98.5821C134.796 98.3652 134.883 98.1573 135.038 98.0039C135.193 97.8505 135.404 97.7645 135.623 97.7645H139.782C139.909 97.7646 140.034 97.7937 140.148 97.8491C140.262 97.9047 140.361 97.9851 140.439 98.0846L146.137 105.402C146.232 105.523 146.29 105.668 146.305 105.82C146.321 105.972 146.292 106.125 146.224 106.262C146.156 106.399 146.05 106.515 145.918 106.595C145.787 106.676 145.635 106.719 145.48 106.718H135.629C135.52 106.719 135.411 106.698 135.311 106.658C135.21 106.617 135.118 106.557 135.041 106.481C134.963 106.405 134.902 106.315 134.86 106.216C134.818 106.117 134.796 106.01 134.796 105.903Z" fill="#D3E3FD"/>
<path d="M93.5433 120.874V120.933C93.5433 122.715 94.2599 124.425 95.5353 125.685C96.8109 126.945 98.5408 127.654 100.345 127.654C102.148 127.654 103.878 126.945 105.154 125.685C106.429 124.425 107.146 122.715 107.146 120.933" stroke="#CCDDE2" stroke-miterlimit="10"/>
<path d="M134.796 120.933C134.796 122.715 135.512 124.424 136.788 125.684C138.063 126.945 139.793 127.653 141.596 127.653C143.4 127.653 145.13 126.945 146.405 125.684C147.68 124.424 148.397 122.715 148.397 120.933" fill="#EB5B65"/>
<path d="M134.813 58.6818C140.468 57.4873 146.557 59.644 150.698 63.6304C154.839 67.6168 157.144 73.2384 157.738 78.9203C158.694 87.962 156.13 98.4065 151.085 106.001" stroke="#CCDDE2" stroke-miterlimit="10"/>
<path d="M84.1622 22.3326C93.636 18.959 104.993 21.9505 113.878 45.2252C116.78 52.8314 120.467 56.4134 125.66 56.8609" stroke="#CCDDE2" stroke-miterlimit="10"/>
<path d="M47.9552 33.5186C47.9552 33.5186 58.53 32.3137 58.5945 45.1353L88.197 36.6186L92.845 35.1745C92.845 35.1745 86.1761 27.181 78.4828 25.8057C78.5657 26.5825 78.7214 27.35 78.9479 28.0984C79.3451 29.4754 78.0281 30.2844 76.2006 30.7973C74.3731 31.3103 70.6727 28.2757 70.0369 25.5991C70.0369 25.5991 70.9497 24.785 67.5491 25.3685C64.1484 25.952 53.8297 28.3204 47.9552 33.5186Z" fill="#2E2E2E"/>
<path d="M2.04438 95.7425C2.33301 95.8962 2.65552 95.9771 2.98339 95.9783C3.27888 95.978 3.57049 95.9119 3.83675 95.7854C4.10298 95.6587 4.33705 95.4747 4.5217 95.2468L11.1941 87.1655L16.5791 80.4888L12.1715 78.0464C11.7147 77.7916 11.1743 77.7265 10.6689 77.8653C10.1635 78.0042 9.73456 78.3354 9.47636 78.7865L1.25867 93.0436C1.12815 93.2712 1.04489 93.5221 1.01378 93.7819C0.98268 94.0416 1.00435 94.3048 1.07752 94.5562C1.15069 94.8075 1.2739 95.042 1.43992 95.2456C1.60595 95.4494 1.81143 95.6183 2.04438 95.7425Z" fill="#2E2E2E"/>
<path d="M103.611 133.87L109.165 139.268C109.646 139.737 110.293 140 110.969 140H124.866C125.437 140.003 125.987 139.789 126.403 139.402C126.818 139.014 127.066 138.483 127.096 137.92C127.125 137.356 126.933 136.803 126.561 136.375C126.188 135.948 125.662 135.679 125.094 135.624L117.383 134.835L103.611 133.87Z" fill="#2E2E2E"/>
<path d="M78.0227 25.1917V25.5635V25.6581C81.0955 26.4194 83.9889 27.7639 86.5418 29.617C86.9547 29.9165 87.3589 30.2194 87.7613 30.5396C87.7718 29.2555 87.6603 27.9663 87.2387 26.7528C86.8981 25.7101 86.2584 24.7873 85.3972 24.097C84.6394 23.4997 83.7422 23.1158 82.8398 22.7699C81.9373 22.4239 81.0523 22.121 80.2266 21.6545C79.5297 21.2769 78.9208 20.7591 78.4391 20.1346C78.2707 19.9086 78.1658 19.6425 78.1351 19.3635C78.1046 19.0845 78.1494 18.8024 78.2649 18.5459C78.1837 18.5406 78.1034 18.5249 78.0262 18.4995L78.0227 25.1917Z" fill="#EB5B65"/>
<path d="M78.0227 25.1917V25.5635V25.6581C81.0955 26.4194 83.9889 27.7639 86.5418 29.617C86.9547 29.9165 87.3589 30.2194 87.7613 30.5396C87.7718 29.2555 87.6603 27.9663 87.2387 26.7528C86.8981 25.7101 86.2584 24.7873 85.3972 24.097C84.6394 23.4997 83.7422 23.1158 82.8398 22.7699C81.9373 22.4239 81.0523 22.121 80.2266 21.6545C79.5297 21.2769 78.9208 20.7591 78.4391 20.1346C78.2707 19.9086 78.1658 19.6425 78.1351 19.3635C78.1046 19.0845 78.1494 18.8024 78.2649 18.5459C78.1837 18.5406 78.1034 18.5249 78.0262 18.4995L78.0227 25.1917Z" fill="#EB5B65"/>
<path d="M35.5756 54.1948C36.729 55.0125 38.0126 55.6344 39.3734 56.0348C39.9571 56.2069 38.5773 56.8506 39.1766 56.966C36.8055 51.4373 38.4971 42.9378 45.9988 35.1818C47.2758 33.8599 50.213 32.1851 51.6608 31.0216C53.99 29.1506 56.5388 28.9079 58.9778 27.7856C60.0678 27.2883 61.1872 26.8561 62.3297 26.4912C64.3606 25.8244 66.457 25.3698 68.584 25.1349C69.0665 25.0764 69.5439 25.035 70.0264 25.0092C69.9085 24.1897 69.9322 23.3563 70.0961 22.5444C70.5404 20.3171 71.3156 19.0382 72.7268 17.2825C73.6118 16.1775 74.9916 13.5354 73.1501 12.6248C71.9898 12.0534 71.8836 10.8846 72.4289 10.172C72.8905 9.56273 73.8226 9.2856 74.9759 9.99992C75.772 10.5025 76.718 10.5352 77.6274 10.2891C78.3363 9.88116 78.9511 9.33122 79.4323 8.67456C80.7685 6.78118 80.8155 3.9153 78.7267 2.52625C77.5856 1.76718 76.1327 1.58301 74.7686 1.72931C74.159 1.79902 73.5586 1.93225 72.9776 2.12692C72.9752 2.12589 72.9724 2.12537 72.9698 2.12537C72.967 2.12537 72.9644 2.12589 72.962 2.12692C70.4951 3.44196 68.7285 5.87408 67.8801 8.61432C67.3819 10.234 66.8192 11.8382 66.1606 13.4097C65.6206 14.6989 65.2443 16.267 64.0387 17.1466C63.5361 17.5154 62.9648 17.7827 62.3575 17.9332C60.0823 19.3584 56.9255 18.5356 54.4377 18.2327C52.4484 17.964 50.423 18.1664 48.5284 18.8231C46.4065 19.8816 44.5824 21.5771 43.1016 23.7751C40.6626 27.4173 43.2445 32.6688 39.1557 35.5416C37.924 36.4022 36.4972 36.9306 35.1487 37.6071C33.2184 38.5778 31.6645 39.9548 31.0913 42.0823C29.9467 46.3441 31.9728 51.6112 35.5756 54.1948Z" fill="#EB5B65"/>
<path d="M86.0158 85.3701L117.47 134.786L104.056 134.159L99.0522 129.649H93.3328C93.3328 129.649 77.7441 107.063 74.1692 103.235C70.5943 99.4069 74.1692 89.7042 74.1692 89.7042L86.0158 85.3701Z" fill="#D3E3FD"/>
<path d="M135.573 139.997H38.8123" stroke="#1E3348" stroke-miterlimit="10"/>
<path d="M81.5715 6.94643C81.82 7.4553 82.0325 7.98035 82.2074 8.51814C82.4618 9.39437 82.1865 9.93491 82.5733 10.7681C82.7057 11.0556 82.8973 11.5428 83.0959 12.0368C83.1534 11.9215 83.2074 11.8268 83.2388 11.7528C84.7562 8.41485 82.7614 6.80527 81.8015 6.25439C81.7421 6.49041 81.6653 6.72178 81.5715 6.94643Z" fill="#EB5B65"/>
<path d="M81.5715 6.94643C81.82 7.4553 82.0325 7.98035 82.2074 8.51814C82.4618 9.39437 82.1865 9.93491 82.5733 10.7681C82.7057 11.0556 82.8973 11.5428 83.0959 12.0368C83.1534 11.9215 83.2074 11.8268 83.2388 11.7528C84.7562 8.41485 82.7614 6.80527 81.8015 6.25439C81.7421 6.49041 81.6653 6.72178 81.5715 6.94643Z" fill="#EB5B65"/>
<path d="M67.2269 96.3546C65.605 101.988 62.9883 107.701 60.8193 111.312C59.2512 113.918 56.7434 115.841 53.7995 116.695C50.8557 117.55 47.6937 117.272 44.9484 115.918L21.142 104.247V98.964L11.1944 87.1718L4.52198 95.2461C4.33665 95.4728 4.10226 95.6556 3.83607 95.7809C3.56985 95.9064 3.27858 95.9713 2.98367 95.9708C2.63759 95.9689 2.298 95.8778 1.99844 95.7066C1.69887 95.5353 1.44971 95.2899 1.27555 94.9943C1.10139 94.6989 1.00824 94.3636 1.00533 94.0216C1.00242 93.6798 1.08984 93.343 1.25895 93.0447L9.47664 78.7944C9.73498 78.3435 10.1639 78.0121 10.6691 77.8734C11.1745 77.7345 11.7149 77.7997 12.1717 78.0543L16.5793 80.4967L41.8404 94.475C42.2606 94.7074 42.7305 94.8377 43.2117 94.8556C43.6927 94.8733 44.1712 94.778 44.6076 94.5773C45.0442 94.3766 45.4263 94.0764 45.7223 93.7013C46.0184 93.3263 46.22 92.887 46.3108 92.4198L49.3038 76.9286" stroke="#1E3348" stroke-miterlimit="10"/>
<path d="M56.2705 87.3926L62.7426 92.5942C69.5543 97.9037 75.4825 104.234 80.3121 111.356L93.2423 129.699H114.113" stroke="#1E3348" stroke-miterlimit="10"/>
<path d="M99.3309 129.702L103.611 133.87L109.165 139.267C109.646 139.736 110.293 139.999 110.968 139.999H124.865C125.437 140.002 125.987 139.788 126.403 139.401C126.818 139.013 127.066 138.483 127.096 137.919C127.125 137.355 126.933 136.802 126.56 136.375C126.188 135.947 125.662 135.678 125.094 135.624L117.383 134.835L80.1603 76.3558C78.244 73.3367 76.5367 68.3674 78.0227 65.1125C83.683 52.7316 83.1934 40.7379 83.1934 40.7379" stroke="#1E3348" stroke-miterlimit="10"/>
<path d="M78.023 17.4463V25.1403V25.5121V25.6067C78.8227 26.76 79.2269 28.3952 78.4621 29.6207C77.4394 31.261 75.1799 30.9891 73.7461 30.0717C73.3248 29.8016 72.9227 29.5036 72.5422 29.18C71.268 28.0858 70.4438 26.5686 70.2252 24.9148C70.1076 24.0958 70.1306 23.2631 70.2931 22.4517C70.7409 20.2261 71.5126 18.9472 72.929 17.1881C73.814 16.0848 75.1938 13.4409 73.3489 12.5304C71.1903 11.4667 72.6851 8.35292 75.1746 9.90893C77.1049 11.1138 79.8784 9.61115 81.0247 7.99145C82.361 6.09808 82.4097 3.2322 80.3192 1.84315C79.1781 1.08408 77.7251 0.899902 76.3628 1.04621C72.2078 1.49718 69.2531 4.70559 68.0702 8.51988C67.5719 10.1396 67.0092 11.7438 66.3524 13.3153C65.8106 14.6062 65.4343 16.1726 64.2305 17.0521C61.9396 18.7458 58.619 17.8594 56.025 17.5461C50.6243 16.8903 46.269 19.2536 43.2934 23.6772C40.8544 27.3194 43.4363 32.5709 39.3457 35.4437C38.1158 36.3043 36.6889 36.8327 35.3388 37.5092C33.4067 38.4782 31.8545 39.857 31.2796 41.9844C30.135 46.26 32.1611 51.5288 35.7621 54.1124C37.4119 55.2966 39.3422 56.0057 41.3474 56.3913" stroke="#1E3348" stroke-miterlimit="10"/>
<path d="M88.6828 31.529C88.6933 31.4309 88.6985 31.3363 88.702 31.2433C88.7926 29.5548 88.7821 27.8008 88.2246 26.1846C87.8833 25.1427 87.2438 24.2208 86.3832 23.5304C85.6219 22.9331 84.7264 22.5458 83.8274 22.2016C82.9285 21.8573 82.0383 21.5544 81.2142 21.0862C80.5162 20.7112 79.9073 20.1931 79.4285 19.5664C79.2592 19.3416 79.1531 19.0765 79.121 18.7982C79.0888 18.5197 79.1319 18.2379 79.2456 17.9811" stroke="#1E3348" stroke-miterlimit="10"/>
<path d="M21.1435 98.9659V83.0203" stroke="#1E3348" stroke-miterlimit="10"/>
<path d="M76.3483 15.7244C76.9737 16.6074 77.8221 17.5609 78.8918 17.9069C80.2768 18.351 81.2089 17.1909 81.7054 16.06C82.0033 15.387 82.2071 14.671 82.4475 13.9756C82.5259 13.7466 82.573 13.6313 82.8395 13.6175C83.1061 13.6038 83.3831 13.6589 83.6548 13.6589C83.6756 13.6599 83.696 13.6551 83.7139 13.6449C83.7318 13.6348 83.7465 13.6198 83.7561 13.6015C83.7656 13.5835 83.7697 13.563 83.7677 13.5427C83.7658 13.5224 83.7581 13.5029 83.7454 13.4867C83.3796 12.9377 82.8343 11.4367 82.5573 10.836C82.174 10.0029 82.451 9.45901 82.1932 8.58805C82.0172 8.05068 81.8059 7.52518 81.5608 7.01483" stroke="#1E3348" stroke-miterlimit="10"/>
<path d="M81.9687 5.40735C81.9687 5.40735 85.7439 6.83617 83.7944 11.1364C83.6742 11.3981 83.3781 11.9404 83.2387 12.1865" stroke="#1E3348" stroke-miterlimit="10"/>
<path d="M81.7598 15.9296C81.4578 15.9701 81.1511 15.9005 80.8971 15.7339C80.6433 15.5672 80.4593 15.3149 80.3801 15.0241" stroke="#1E3348" stroke-miterlimit="10"/>
<path d="M82.3991 10.1703C81.6169 9.54191 80.7597 10.3424 80.2371 10.9294" stroke="#1E3348" stroke-miterlimit="10"/>
<path d="M78.0227 25.6064C81.0969 26.3679 83.992 27.7126 86.547 29.5653C87.2892 30.0955 88.0052 30.66 88.7003 31.247C91.4425 33.5466 93.8553 36.2076 96.2003 38.8979" stroke="#1E3348" stroke-miterlimit="10"/>
<path d="M99.7176 64.2779C99.7035 64.2695 99.6906 64.259 99.6792 64.247C96.6026 61.2072 93.5033 58.1899 90.418 55.1605C87.8327 52.6233 84.4703 50.026 82.8919 46.6971" stroke="#1E3348" stroke-miterlimit="10"/>
<path d="M63.643 86.1631C63.8939 86.0839 64.1326 86.0047 64.3591 85.9221C64.3631 85.9234 64.3673 85.9234 64.3713 85.9221" stroke="#1E3348" stroke-miterlimit="10"/>
<path d="M40.2232 50.4201L58.5941 45.1359L92.3307 35.4298C93.9514 34.9686 95.6911 35.1604 97.1692 35.9628C98.6474 36.7653 99.7439 38.1132 100.219 39.7122L107.465 64.3037C107.932 65.9048 107.738 67.6233 106.927 69.0842C106.116 70.5452 104.753 71.6296 103.135 72.101L67.1811 82.4423L63.7491 83.4268L60.2648 84.4338L56.8328 85.4235L54.0454 86.2204L44.15 89.0674C42.5293 89.5292 40.7892 89.338 39.3109 88.5353C37.8323 87.7329 36.736 86.3843 36.2616 84.7849L29.016 60.1934C28.5488 58.5931 28.7416 56.8752 29.5524 55.415C30.3634 53.9549 31.7264 52.8714 33.3435 52.4013L33.6031 52.3273L33.8208 52.2636L38.441 50.9331L40.2232 50.4201Z" fill="#D3E3FD"/>
<path d="M42.9847 51.0618L60.0055 46.1666L91.2665 37.173C92.7693 36.7431 94.3832 36.9191 95.7548 37.6629C97.1264 38.4065 98.1436 39.6571 98.5835 41.1405L105.294 63.9195C105.726 65.4031 105.548 66.9952 104.797 68.3493C104.047 69.7033 102.785 70.7095 101.287 71.1488L67.9688 80.7327L64.7894 81.6484L61.5542 82.5796L58.3748 83.4988L55.7895 84.2303L45.2094 87.3286C43.7067 87.759 42.0924 87.5831 40.7208 86.8394C39.349 86.0956 38.332 84.8448 37.8924 83.3611L31.1852 60.57C30.75 59.0864 30.9273 57.4929 31.6782 56.1381C32.4292 54.7833 33.6927 53.7776 35.1921 53.3407L35.4325 53.2719L35.6346 53.2151L41.3332 51.5283L42.9847 51.0618Z" fill="#EB5B65"/>
<path d="M44.8279 51.8706L60.61 47.3316L90.749 38.6135C92.1413 38.2176 93.6358 38.3822 94.9056 39.0714C96.1754 39.7605 97.1174 40.9184 97.526 42.2918L103.752 63.4202C104.153 64.7958 103.987 66.2723 103.291 67.5274C102.594 68.7826 101.423 69.7143 100.033 70.1193L67.9879 79.3882L65.0402 80.2351L62.042 81.0957L59.0925 81.946L56.7041 82.6345L45.9359 85.7672C44.5425 86.1668 43.0458 86.0038 41.7739 85.3143C40.5021 84.6246 39.5591 83.4646 39.152 82.0889L32.9238 60.9622C32.5224 59.5871 32.6883 58.1108 33.3851 56.8562C34.0822 55.6016 35.2536 54.6705 36.6433 54.2666L37.8245 53.9344L38.0126 53.8793L43.2965 52.3164L44.8279 51.8706Z" fill="#EB5B65"/>
<path d="M68.2856 64.4449L39.9218 72.354C39.7706 72.3962 39.6124 72.4086 39.4563 72.3903C39.3004 72.3721 39.1495 72.3236 39.0124 72.2477C38.8753 72.1717 38.7547 72.0698 38.6575 71.9478C38.5605 71.8258 38.4885 71.686 38.4462 71.5364C38.4152 71.4332 38.3993 71.3259 38.3992 71.218C38.4004 70.9608 38.4857 70.7109 38.6429 70.5057C38.7999 70.3007 39.0201 70.1513 39.2702 70.0803L67.6341 62.1763C67.5198 62.5622 67.5144 62.9717 67.6184 63.3605C67.7311 63.7777 67.9626 64.154 68.2856 64.4449Z" fill="#EB5B65"/>
<path d="M74.9115 61.6979C74.9112 61.9559 74.8261 62.2067 74.669 62.413C74.5119 62.619 74.2913 62.7693 74.0404 62.8409L71.9934 63.4125C72.11 63.0112 72.1112 62.5858 71.9971 62.1838C71.883 61.7819 71.6579 61.4193 71.3471 61.1367L73.3941 60.5668C73.6993 60.483 74.0256 60.5219 74.3018 60.6751C74.5779 60.8283 74.7815 61.0835 74.868 61.3846C74.8986 61.4861 74.9134 61.5918 74.9115 61.6979Z" fill="#D3E3FD"/>
<path d="M76.2005 66.2111C76.1997 66.4684 76.1143 66.7183 75.9572 66.9235C75.8 67.1287 75.5798 67.2779 75.3295 67.3488L47.1416 75.2046C47.3106 74.8186 47.3655 74.3932 47.2998 73.9777C47.2341 73.5622 47.0505 73.1735 46.7705 72.8568L74.6779 65.0733C74.9831 64.99 75.3091 65.0293 75.5852 65.1823C75.8612 65.3355 76.0648 65.5902 76.1518 65.8909C76.1842 65.9946 76.2005 66.1025 76.2005 66.2111Z" fill="#D3E3FD"/>
<path d="M43.7514 76.1409L41.2113 76.8484C41.0565 76.9086 40.8906 76.9364 40.7242 76.9295C40.558 76.9228 40.395 76.8816 40.2457 76.8088C40.0964 76.736 39.9641 76.6332 39.8575 76.5069C39.7509 76.3807 39.6722 76.2337 39.6263 76.0756C39.5805 75.9174 39.5689 75.7517 39.5917 75.5888C39.6147 75.4258 39.6718 75.2695 39.7596 75.1297C39.8474 74.9899 39.9638 74.8699 40.1013 74.7771C40.2387 74.6845 40.3943 74.6213 40.558 74.5915L42.8228 73.9615C42.774 74.2705 42.7889 74.586 42.8664 74.8894C43.0021 75.3968 43.3157 75.8403 43.7514 76.1409Z" fill="#EB5B65"/>
<path d="M69.0018 74.0352L42.685 81.3729C42.3799 81.4548 42.0543 81.4151 41.7787 81.262C41.5031 81.1092 41.2993 80.8553 41.2111 80.5553C41.1805 80.4532 41.1658 80.347 41.1676 80.2403C41.1681 79.9825 41.2533 79.7317 41.4104 79.5256C41.5674 79.3194 41.7879 79.1693 42.0386 79.0974L68.3171 71.7769C68.2072 72.179 68.2131 72.6035 68.334 73.0024C68.4549 73.4014 68.6863 73.7591 69.0018 74.0352Z" fill="#EB5B65"/>
<path d="M77.6796 70.7224C77.68 70.9799 77.595 71.2306 77.4377 71.4359C77.2803 71.6415 77.0594 71.7904 76.8086 71.8603L72.6814 73.0085L69.0055 74.0414C68.69 73.7651 68.4587 73.4074 68.3377 73.0083C68.2168 72.6093 68.2109 72.185 68.3208 71.7828L72.0665 70.7396L76.1605 69.5965C76.4652 69.5115 76.7915 69.5494 77.0682 69.7017C77.3446 69.8539 77.549 70.1083 77.6361 70.4091C77.6652 70.511 77.68 70.6165 77.6796 70.7224Z" fill="#D3E3FD"/>
<path d="M71.9935 63.4121C71.8567 63.8845 71.5663 64.2994 71.1674 64.5925C70.7682 64.8857 70.2825 65.041 69.7853 65.0344C69.2881 65.0277 68.8068 64.8595 68.416 64.5557C68.0251 64.252 67.7461 63.8294 67.6225 63.3536C67.5474 63.0689 67.5299 62.7724 67.5711 62.4811C67.612 62.1899 67.7108 61.9094 67.8615 61.6559C68.0123 61.4023 68.2122 61.1806 68.4498 61.0034C68.6874 60.8261 68.958 60.697 69.2461 60.6233C69.6122 60.5292 69.9961 60.5271 70.3632 60.6173C70.7301 60.7075 71.0684 60.8871 71.3472 61.1398C71.658 61.4224 71.883 61.785 71.9971 62.187C72.1113 62.5889 72.11 63.0143 71.9935 63.4156V63.4121Z" fill="#D3E3FD"/>
<g opacity="0.72">
<path opacity="0.72" d="M70.7771 62.3382C70.805 62.6094 70.7543 62.8829 70.6308 63.1267C70.5713 63.2472 70.5015 63.3625 70.4217 63.471C70.3781 63.5278 70.1499 63.8531 70.0837 63.8394C69.6342 63.7602 68.9914 63.4142 68.7841 62.9511C68.7531 62.8783 68.7315 62.802 68.7196 62.7239C68.7036 62.6104 68.7228 62.4949 68.7743 62.3925C68.8259 62.29 68.9076 62.2052 69.0086 62.1494C69.1099 62.0936 69.2255 62.0694 69.341 62.0797C69.4564 62.09 69.5658 62.1344 69.6551 62.2074C69.7034 62.0909 69.7886 61.9929 69.8982 61.9285C70.0076 61.864 70.1355 61.8366 70.2621 61.8502C70.3888 61.8638 70.5076 61.9177 70.6004 62.0039C70.6933 62.0902 70.7553 62.2038 70.7771 62.3279V62.3382Z" fill="#EB5B65"/>
</g>
<path d="M47.1415 75.2042C46.9556 75.6339 46.6383 75.9951 46.2342 76.2375C45.8302 76.4799 45.3593 76.5912 44.8878 76.5559C44.4166 76.5206 43.9682 76.3404 43.6056 76.0407C43.2431 75.7408 42.9845 75.3364 42.8663 74.884C42.7887 74.5809 42.7739 74.2653 42.8227 73.9562C42.8959 73.5301 43.092 73.1338 43.3875 72.8152C43.6828 72.4964 44.065 72.2684 44.4882 72.1589C44.8969 72.0519 45.3281 72.061 45.7317 72.1853C46.1356 72.3094 46.4955 72.5439 46.7704 72.8613C47.0505 73.1781 47.234 73.5668 47.2997 73.9823C47.3653 74.3979 47.3105 74.8234 47.1415 75.2094V75.2042Z" fill="#D3E3FD"/>
<g opacity="0.72">
<path opacity="0.72" d="M46.023 73.8671C46.0503 74.1385 45.9991 74.4119 45.8749 74.6555C45.8171 74.777 45.747 74.8924 45.6659 74.9998C45.6223 75.0566 45.3941 75.382 45.3296 75.3682C44.8784 75.289 44.2373 74.943 44.03 74.4782C43.9981 74.4057 43.9763 74.3293 43.9655 74.2509C43.9495 74.1377 43.9685 74.0222 44.0201 73.9196C44.0716 73.8171 44.1533 73.7324 44.2545 73.6767C44.3556 73.6207 44.4714 73.5964 44.5869 73.6068C44.7023 73.6171 44.8117 73.6617 44.9011 73.7345C44.9354 73.6512 44.9889 73.5766 45.0572 73.5169C45.1254 73.4572 45.2068 73.4138 45.2948 73.3902C45.3744 73.3718 45.4571 73.3695 45.5376 73.3837C45.6183 73.398 45.6951 73.4284 45.7632 73.473C45.8315 73.5178 45.8897 73.5758 45.9345 73.6434C45.9791 73.7113 46.0092 73.7874 46.023 73.8671Z" fill="#EB5B65"/>
</g>
<path d="M72.6777 73.0081C72.5192 73.5233 72.1772 73.9645 71.715 74.2499C71.253 74.5353 70.7017 74.6459 70.1636 74.561C69.6253 74.4761 69.1364 74.2016 68.7871 73.7881C68.438 73.3747 68.2519 72.8502 68.2636 72.3119C68.2753 71.7734 68.4838 71.2573 68.8507 70.859C69.2176 70.4608 69.718 70.2072 70.2592 70.1451C70.8007 70.0831 71.3465 70.2168 71.7958 70.5215C72.2453 70.8262 72.5678 71.2816 72.7038 71.803C72.8068 72.1995 72.7977 72.6162 72.6777 73.0081Z" fill="#D3E3FD"/>
<g opacity="0.72">
<path opacity="0.72" d="M71.4722 71.9131C71.4985 72.1844 71.4473 72.4576 71.3242 72.7015C71.2654 72.8225 71.1954 72.9377 71.1151 73.0458C71.0715 73.1026 70.8433 73.428 70.7789 73.4142C70.3276 73.335 69.6848 72.989 69.4775 72.5259C69.4463 72.4526 69.4247 72.3756 69.413 72.2969C69.397 72.1837 69.416 72.0682 69.4677 71.9656C69.5193 71.8631 69.601 71.7784 69.702 71.7225C69.8031 71.6667 69.9189 71.6424 70.0344 71.6528C70.1498 71.6631 70.2592 71.7077 70.3486 71.7805C70.3975 71.6643 70.483 71.5669 70.5928 71.5028C70.7024 71.4388 70.8301 71.4116 70.9567 71.4254C71.0834 71.4391 71.202 71.4932 71.2951 71.5793C71.3879 71.6653 71.4501 71.7788 71.4722 71.9027V71.9131Z" fill="#EB5B65"/>
</g>
<path d="M68.0035 79.0306C66.4931 79.1132 64.8677 76.9651 64.3712 76.4298C64.3161 76.3728 64.2534 76.3236 64.1848 76.2835L62.8346 75.2042L63.0611 76.9014C63.4217 77.719 65.3259 79.5022 66.683 81.5488C68.0401 83.5953 66.7474 84.0429 66.021 84.3028C65.2945 84.5627 64.5349 83.2063 64.8311 84.6797C65.1273 86.1531 63.3677 86.1738 62.2701 85.9896C61.1726 85.8054 60.7789 84.6126 61.028 85.5489C61.2771 86.4853 60.4548 87.1686 59.7127 87.1996C59.15 87.2272 58.0681 86.4767 57.5803 86.1152C57.4688 86.7074 57.0664 87.8193 55.6639 87.2272C53.8016 86.4406 51.9932 81.7398 50.6117 76.9289C49.2302 72.118 40.2825 63.3431 38.9777 54.0518C38.9777 54.0363 38.9777 54.0139 38.9777 53.9984C38.908 53.2962 38.8726 52.5887 38.8714 51.8761C38.8718 50.5217 39.0049 49.1705 39.2686 47.8415C39.4573 46.8745 39.7092 45.9206 40.023 44.986L54.7963 47.8845C54.6953 47.9947 54.5943 48.1049 54.4932 48.2202C51.0351 52.1877 53.0559 57.2189 55.6866 60.9127C58.3555 64.6719 61.4269 68.3864 64.9374 71.4123C65.968 72.2986 66.9312 73.2589 67.8189 74.2851L67.6272 74.3901C67.8358 74.7913 68.0685 75.18 68.3241 75.5537C69.3676 76.9754 69.5209 78.9462 68.0035 79.0306Z" fill="#D3E3FD"/>
<path d="M58.5941 45.1359L92.3307 35.4298C93.9514 34.9686 95.6911 35.1604 97.1693 35.9628C98.6474 36.7653 99.7439 38.1132 100.219 39.7122L107.465 64.3037C107.932 65.9048 107.738 67.6233 106.927 69.0842C106.116 70.5452 104.753 71.6295 103.135 72.101L67.1811 82.4423" stroke="#1E3348" stroke-miterlimit="10"/>
<path d="M54.0367 86.2204L44.15 89.0674C42.5293 89.5293 40.7892 89.3381 39.3109 88.5355C37.8323 87.7329 36.736 86.3843 36.2616 84.7849L29.016 60.1934C28.5488 58.5931 28.7416 56.8751 29.5524 55.4152C30.3634 53.955 31.7264 52.8713 33.3435 52.4013L33.6031 52.3273L33.8208 52.2636L38.441 50.933" stroke="#1E3348" stroke-miterlimit="10"/>
<path d="M63.7503 83.4263H63.7442" stroke="#1E3348" stroke-miterlimit="10"/>
<path d="M56.8235 85.4233H56.8174" stroke="#1E3348" stroke-miterlimit="10"/>
<path d="M58.7023 75.996C59.1884 78.6157 61.3974 81.4541 63.7406 83.4197C64.4218 83.9912 65.927 84.6866 66.7441 84.0342C68.5071 82.6297 65.4932 80.3163 64.6622 79.3868C63.6535 78.2577 62.8382 76.9341 62.5351 75.4417C62.5086 75.3497 62.5141 75.2515 62.5507 75.1629C62.5861 75.1147 62.6361 75.0791 62.6936 75.0615C62.7511 75.0438 62.8128 75.045 62.8695 75.0648C62.9819 75.1058 63.0833 75.1717 63.1657 75.2576C64.1204 76.1182 64.9723 77.07 65.8364 78.0116C66.4479 78.6846 68.0385 79.5194 68.819 78.6622C70.5123 76.8015 65.7197 72.4657 64.4932 71.402C60.9863 68.3726 57.9097 64.6581 55.2407 60.9023C52.6101 57.2085 50.5892 52.1773 54.0473 48.2098C55.8522 46.1443 58.5246 45.2424 60.9114 44.022C64.7615 42.0598 65.5542 38.7894 65.5542 38.7894" stroke="#1E3348" stroke-miterlimit="10"/>
<path d="M56.4654 78.6586C56.4654 78.6586 58.4584 84.2716 62.6918 86.0186C62.9432 86.1291 63.2165 86.1823 63.4916 86.1742C63.7665 86.1661 64.0362 86.0971 64.2806 85.9722C64.8032 85.683 65.2301 85.1115 64.4966 83.9652" stroke="#1E3348" stroke-miterlimit="10"/>
<path d="M53.7061 79.9703C54.4831 82.0531 55.5144 84.2304 57.1729 85.7796C57.929 86.4835 58.8872 87.1807 59.9604 87.2254C61.253 87.2788 61.3541 85.9913 60.8314 85.1152C60.7184 84.9274 60.5826 84.754 60.4272 84.5988" stroke="#1E3348" stroke-miterlimit="10"/>
<path d="M57.1726 85.7799C57.1726 85.7799 57.0785 88.0175 55.2162 87.2275C53.3538 86.4374 51.5403 81.7384 50.164 76.9258C48.7877 72.1132 39.7895 63.3124 38.5125 53.9987L38.5265 54.1123C38.5265 54.0917 38.5265 54.0762 38.5265 54.0555C38.3089 51.9812 38.405 49.8863 38.8122 47.8401C42.8452 27.6739 70.0366 25.006 70.0366 25.006" stroke="#1E3348" stroke-miterlimit="10"/>
<path d="M110.324 67.5942C109.571 69.7888 107.71 71.1882 105.418 71.529C104.435 71.6718 103.376 71.8027 102.456 71.3569C101.782 71.0315 101.118 70.2725 101.32 69.4755C101.02 69.4793 100.721 69.4458 100.43 69.3757C100.031 69.281 99.6181 69.0934 99.4422 68.7302C99.2662 68.367 99.3899 67.861 99.6756 67.5357C99.9869 67.2324 100.37 67.011 100.791 66.8919C100.893 66.8548 100.997 66.8231 101.102 66.7973C100.762 66.8002 100.422 66.7789 100.085 66.7336C99.4369 66.651 98.7105 66.3773 98.5171 65.7645C98.4634 65.5562 98.4639 65.338 98.5188 65.1301C98.5737 64.922 98.681 64.7311 98.8307 64.5751C99.1355 64.2657 99.5178 64.0412 99.9387 63.9245C99.9822 63.9142 100.019 63.8987 100.061 63.8883C99.2923 63.878 98.5066 63.7266 98.1669 63.0071C98.0577 62.7515 98.0268 62.4699 98.0779 62.1969C98.1289 61.9241 98.2598 61.6719 98.4544 61.4717C99.1338 60.7178 100.151 60.6111 101.111 60.5388C102.071 60.4665 103.238 60.4338 104.369 60.4131C104.615 60.4068 104.855 60.3448 105.073 60.2324C105.291 60.1198 105.48 59.9596 105.625 59.7639C105.77 59.5684 105.869 59.3424 105.912 59.1034C105.955 58.8645 105.943 58.6191 105.876 58.3855C105.435 56.8364 105.249 55.1461 106.177 54.733C107.562 54.1134 108.517 55.8019 108.914 56.8398C110.128 60.0207 111.48 64.2343 110.324 67.5942Z" fill="#D3E3FD"/>
<path d="M104.482 66.316C103.362 66.5519 102.228 66.7929 101.092 66.8032C100.987 66.8292 100.882 66.8609 100.78 66.8979C100.36 67.0169 99.9767 67.2382 99.6653 67.5417C99.3796 67.8671 99.242 68.3491 99.4319 68.7364C99.6218 69.1238 100.021 69.2873 100.42 69.382C100.711 69.4519 101.01 69.4855 101.31 69.4818C101.923 69.4694 102.533 69.3939 103.13 69.2563C103.232 69.2357 104.468 69.0945 104.564 69.0721" stroke="#1E3348" stroke-miterlimit="10"/>
<path d="M100.049 63.8942C100.007 63.9046 99.9703 63.9201 99.9267 63.9304C99.5058 64.0469 99.1236 64.2714 98.8187 64.5811C98.6691 64.7369 98.5618 64.9278 98.5069 65.1359C98.452 65.3439 98.4515 65.5623 98.5051 65.7706C98.7072 66.3835 99.4337 66.6572 100.073 66.7398C100.41 66.7849 100.75 66.8063 101.09 66.8035" stroke="#1E3348" stroke-miterlimit="10"/>
<path d="M105.423 63.7787C105.338 63.7787 105.258 63.7787 105.174 63.7787L101.125 63.8682C100.808 63.8682 100.429 63.8992 100.049 63.8889C99.2805 63.8785 98.4948 63.7271 98.1551 63.0076C98.0459 62.752 98.015 62.4702 98.0661 62.1974C98.1171 61.9246 98.2479 61.6724 98.4425 61.4722C99.122 60.7183 100.139 60.6116 101.099 60.5393C102.059 60.467 103.228 60.4378 104.359 60.4137C104.605 60.4082 104.847 60.3467 105.066 60.2343C105.284 60.1221 105.474 59.9615 105.62 59.7654C105.766 59.5692 105.865 59.3425 105.908 59.1028C105.952 58.863 105.939 58.6167 105.871 58.3826C105.43 56.8335 105.24 55.1415 106.171 54.7284C107.556 54.1087 108.51 55.7973 108.908 56.8352C110.127 60.0161 111.481 64.2366 110.324 67.5896C109.57 69.7842 107.711 71.187 105.42 71.5243C104.439 71.6689 103.376 71.7997 102.458 71.3522C101.787 71.0286 101.122 70.2713 101.322 69.4743" stroke="#1E3348" stroke-miterlimit="10"/>
<g opacity="0.54">
<path opacity="0.54" d="M73.3382 54.7611C73.3077 54.5623 73.2617 54.3661 73.2006 54.1742L72.5159 51.9864C72.3068 51.3169 72.0751 50.6094 71.542 50.1481C70.5542 49.2875 69.0316 49.6094 67.7686 49.9846L64.6693 50.9038C63.9567 51.1155 63.2338 51.3324 62.6118 51.7334C61.9899 52.1345 61.4707 52.7576 61.3731 53.4857C61.3 54.0227 61.4603 54.5597 61.6188 55.0795L62.2564 57.1795C62.4672 57.868 62.7007 58.5943 63.2494 59.0728C64.2268 59.9128 65.7198 59.5978 66.9637 59.2346L70.1344 58.3103C72.0473 57.7457 73.6466 56.7354 73.3382 54.7611Z" fill="#D3E3FD"/>
<path opacity="0.54" d="M68.9899 55.0181C69.1178 54.8852 69.2077 54.7208 69.25 54.5422C69.2924 54.3635 69.2858 54.1769 69.2311 54.0015C69.1762 53.8263 69.0751 53.6686 68.938 53.5446C68.8011 53.4207 68.6331 53.3351 68.4516 53.2966L67.469 53.0762L66.4882 52.8559C66.3077 52.8128 66.1189 52.818 65.9412 52.871C65.7633 52.924 65.603 53.0229 65.4767 53.1573C65.3504 53.2918 65.2626 53.457 65.2224 53.6361C65.1821 53.8153 65.191 54.0017 65.2478 54.1763L65.5457 55.1265L65.8419 56.0768C65.8943 56.253 65.9933 56.4123 66.1286 56.5381C66.2642 56.664 66.4311 56.7518 66.6123 56.7927C66.7934 56.8335 66.9825 56.826 67.1596 56.7707C67.337 56.7153 67.4961 56.6142 67.6206 56.4779L68.3053 55.748L68.9899 55.0181Z" fill="#EB5B65"/>
</g>
<path d="M139.16 127.652H130.618" stroke="#CCDDE2" stroke-miterlimit="10"/>
<path d="M129.163 74.8889C134.387 74.8889 138.621 70.7053 138.621 65.5443C138.621 60.3834 134.387 56.1996 129.163 56.1996C123.94 56.1996 119.705 60.3834 119.705 65.5443C119.705 70.7053 123.94 74.8889 129.163 74.8889Z" fill="#EB5B65"/>
<path d="M127.632 69.735C127.522 69.735 127.413 69.7136 127.311 69.672C127.21 69.6303 127.117 69.5692 127.04 69.4923L124.601 67.0822C124.444 66.9271 124.355 66.7167 124.355 66.4974C124.355 66.2781 124.443 66.0676 124.6 65.9125C124.757 65.7572 124.97 65.6699 125.192 65.6697C125.414 65.6696 125.626 65.7565 125.784 65.9116L127.637 67.7432L132.548 62.887C132.705 62.7317 132.918 62.6444 133.14 62.6442C133.362 62.6441 133.575 62.731 133.732 62.8861C133.889 63.041 133.978 63.2514 133.978 63.4707C133.978 63.69 133.89 63.9006 133.733 64.0558L128.223 69.5009C128.065 69.6529 127.852 69.7371 127.632 69.735Z" fill="#D3E3FD"/>
</svg>
