<svg width="108" height="114" viewBox="0 0 108 114" fill="none" xmlns="http://www.w3.org/2000/svg">
<path d="M95.4809 94.3334C93.2643 96.6554 91.164 98.1558 89.5054 99.3399C70.0172 113.256 46.96 109.203 42.0579 108.211C34.8191 106.749 20.8336 103.922 10.7195 92.0808C-4.57969 74.1723 -2.20034 45.9537 9.66928 27.3278C11.8394 23.9219 23.306 5.01056 46.6151 1.97887C60.7207 0.14289 77.163 3.84571 89.0714 13.7739C114.066 34.6177 112.287 76.7257 95.4809 94.3334Z" fill="#D8E0F0"/>
<circle cx="3.02029" cy="3.02029" r="3.02029" transform="matrix(-1 0 0 1 21.0403 24.5254)" fill="#1E3348"/>
<rect x="84" y="25.5253" width="70" height="60" rx="4" transform="rotate(90 84 25.5253)" fill="#1E3348"/>
<line x1="34" y1="44.5435" x2="74.2665" y2="44.5435" stroke="#FBFAFF" stroke-width="2" stroke-linecap="round"/>
<line x1="42" y1="74.9117" x2="66.6946" y2="74.9117" stroke="#FBFAFF" stroke-width="2" stroke-linecap="round"/>
<line x1="28" y1="59.3398" x2="79.3892" y2="59.3398" stroke="#FBFAFF" stroke-width="2" stroke-linecap="round"/>
<g filter="url(#filter0_d_31_766)">
<circle cx="53.3114" cy="24.214" r="12.8837" fill="white"/>
<circle cx="53.3115" cy="19.9194" r="3.22092" fill="#EB5B65"/>
<ellipse cx="53.3115" cy="27.4349" rx="6.44184" ry="3.22092" fill="#EB5B65"/>
</g>
<circle cx="29.7065" cy="91.2319" r="11.7067" fill="url(#paint0_linear_31_766)" stroke="#EB5B65" stroke-width="2"/>
<rect opacity="0.5" x="77.241" y="68.8355" width="26.5686" height="16.1722" rx="3" fill="#A2BAF0"/>
<rect x="68.4998" y="67.0252" width="33.6547" height="14.017" rx="2.5" fill="#FBFAFF" stroke="white"/>
<line x1="71.9653" y1="74.1113" x2="88.2927" y2="74.1113" stroke="#1E3348" stroke-linecap="round"/>
<path d="M93.4133 72.8786L95.0716 74.4615C95.1561 74.5422 95.2916 74.5335 95.3651 74.4427L98.034 71.1459" stroke="#1E3348" stroke-width="1.2" stroke-linecap="round"/>
<circle cx="9" cy="9" r="9" transform="matrix(1 0 0 -1 89 48.5255)" fill="#EB5B65"/>
<defs>
<filter id="filter0_d_31_766" x="40.4277" y="11.3303" width="25.7673" height="27.7674" filterUnits="userSpaceOnUse" color-interpolation-filters="sRGB">
<feFlood flood-opacity="0" result="BackgroundImageFix"/>
<feColorMatrix in="SourceAlpha" type="matrix" values="0 0 0 0 0 0 0 0 0 0 0 0 0 0 0 0 0 0 127 0" result="hardAlpha"/>
<feOffset dy="2"/>
<feComposite in2="hardAlpha" operator="out"/>
<feColorMatrix type="matrix" values="0 0 0 0 0 0 0 0 0 0 0 0 0 0 0 0 0 0 0.07 0"/>
<feBlend mode="normal" in2="BackgroundImageFix" result="effect1_dropShadow_31_766"/>
<feBlend mode="normal" in="SourceGraphic" in2="effect1_dropShadow_31_766" result="shape"/>
</filter>
<linearGradient id="paint0_linear_31_766" x1="37.7926" y1="90.0768" x2="20.4652" y2="90.0768" gradientUnits="userSpaceOnUse">
<stop stop-color="#E0E5F2"/>
<stop offset="0.464626" stop-color="white"/>
<stop offset="1" stop-color="#E0E5F2"/>
</linearGradient>
</defs>
</svg>
