<svg width="119" height="104" viewBox="0 0 119 104" fill="none" xmlns="http://www.w3.org/2000/svg">
<path d="M91.9446 89.3706C89.8101 91.6065 87.7875 93.0514 86.1904 94.1916C67.424 107.593 45.2207 103.689 40.5002 102.734C33.5295 101.327 20.062 98.6042 10.3224 87.2014C-4.41007 69.9562 -2.11884 42.7827 9.31116 24.8466C11.4009 21.5669 22.4428 3.35597 44.8886 0.436569C58.4718 -1.33141 74.3051 2.23427 85.7724 11.7947C109.841 31.8665 108.129 72.415 91.9446 89.3706Z" fill="#D8E0F0"/>
<path d="M92.1175 21.8015H11.2696C9.09333 21.8015 7.3291 23.5657 7.3291 25.742V72.9344C7.3291 75.1107 9.09333 76.8749 11.2696 76.8749H92.1175C94.2938 76.8749 96.058 75.1107 96.058 72.9344V25.742C96.058 23.5657 94.2938 21.8015 92.1175 21.8015Z" fill="#EB5B65"/>
<path d="M87.645 49.0325H15.7438V53.9275H87.645V49.0325Z" fill="#D6D6E3"/>
<circle cx="20.9263" cy="64.5833" r="7.14723" fill="#1E3348"/>
<rect x="7.26721" y="31.5472" width="88.7845" height="10.165" fill="#1E3348"/>
<circle cx="107.645" cy="11.355" r="11.355" fill="#EB5B65"/>
<path d="M108.099 5.45038V16.3511" stroke="white" stroke-width="2" stroke-linecap="round"/>
<path d="M102.649 10.9008L113.55 10.9008" stroke="white" stroke-width="2" stroke-linecap="round"/>
</svg>
