<svg width="18" height="22" viewBox="0 0 18 22" fill="none" xmlns="http://www.w3.org/2000/svg">
<path fill-rule="evenodd" clip-rule="evenodd" d="M12.5092 1C15.5006 1 17.5101 3.23046 17.5101 6.54973V16.0766C17.5101 19.4249 15.5625 21.6025 12.5483 21.6232L5.22865 21.6263C2.23725 21.6263 0.226807 19.3958 0.226807 16.0766V6.54973C0.226807 3.20041 2.17445 1.02383 5.18869 1.00414L12.5083 1H12.5092ZM12.5092 2.55397L5.19344 2.55811C2.97844 2.57261 1.654 4.06442 1.654 6.54973V16.0766C1.654 18.5785 2.99081 20.0723 5.2277 20.0723L12.5435 20.0692C14.7585 20.0547 16.0829 18.5608 16.0829 16.0766V6.54973C16.0829 4.04784 14.7471 2.55397 12.5092 2.55397ZM12.3257 14.9584C12.7196 14.9584 13.0393 15.3065 13.0393 15.7354C13.0393 16.1643 12.7196 16.5124 12.3257 16.5124H5.45614C5.06224 16.5124 4.74254 16.1643 4.74254 15.7354C4.74254 15.3065 5.06224 14.9584 5.45614 14.9584H12.3257ZM12.3257 10.6213C12.7196 10.6213 13.0393 10.9694 13.0393 11.3983C13.0393 11.8272 12.7196 12.1753 12.3257 12.1753H5.45614C5.06224 12.1753 4.74254 11.8272 4.74254 11.3983C4.74254 10.9694 5.06224 10.6213 5.45614 10.6213H12.3257ZM8.07714 6.29426C8.47104 6.29426 8.79073 6.64234 8.79073 7.07124C8.79073 7.50013 8.47104 7.84822 8.07714 7.84822H5.45586C5.06195 7.84822 4.74226 7.50013 4.74226 7.07124C4.74226 6.64234 5.06195 6.29426 5.45586 6.29426H8.07714Z" fill="#B3B3B3" stroke="#B3B3B3" stroke-width="0.2"/>
</svg>
