<svg width="22" height="24" viewBox="0 0 22 24" fill="none" xmlns="http://www.w3.org/2000/svg">
<path d="M2.28377 7.72768L8.91053 2.47645C10.0021 1.61148 11.5454 1.61148 12.6369 2.47645L19.2637 7.72768C19.9818 8.29672 20.4005 9.16272 20.4005 10.0789V15.6702V18.7119C20.4005 20.921 18.6096 22.7119 16.4005 22.7119H14.4478C13.8956 22.7119 13.4478 22.2642 13.4478 21.7119V18.8438C13.4478 17.7392 12.5524 16.8438 11.4478 16.8438H9.56482C8.46025 16.8438 7.56482 17.7392 7.56482 18.8438V21.7119C7.56482 22.2642 7.1171 22.7119 6.56482 22.7119H5.14697C2.93783 22.7119 1.14697 20.921 1.14697 18.7119V10.0789C1.14697 9.16272 1.56567 8.29672 2.28377 7.72768Z" stroke="#B3B3B3" stroke-width="1.8"/>
</svg>
