<svg width="18" height="22" viewBox="0 0 18 22" fill="none" xmlns="http://www.w3.org/2000/svg">
<path fill-rule="evenodd" clip-rule="evenodd" d="M7.06677 19.3296C7.51933 19.8831 8.10033 20.1873 8.70317 20.1873H8.70405C9.30951 20.1873 9.89313 19.8831 10.3466 19.3286C10.5895 19.0341 11.0036 19.0101 11.2718 19.2759C11.5409 19.5416 11.5627 19.9973 11.3207 20.2918C10.6148 21.1524 9.68606 21.6263 8.70405 21.6263H8.7023C7.7229 21.6253 6.79593 21.1514 6.09261 20.2909C5.8506 19.9963 5.87244 19.5406 6.14154 19.2759C6.41063 19.0092 6.82476 19.0331 7.06677 19.3296ZM8.74668 1C12.6302 1 15.239 4.32131 15.239 7.42293C15.239 9.01835 15.6086 9.6947 16.0009 10.4123C16.3888 11.1203 16.8282 11.9243 16.8282 13.4439C16.5233 17.3264 12.832 17.643 8.74668 17.643C4.66135 17.643 0.969168 17.3264 0.667736 13.5053C0.665127 11.9243 1.10459 11.1203 1.4925 10.4123L1.62945 10.1592C1.96663 9.52284 2.25435 8.83066 2.25435 7.42293C2.25435 4.32131 4.86317 1 8.74668 1ZM8.74668 2.43904C5.69316 2.43904 3.56488 5.06578 3.56488 7.42293C3.56488 9.41745 3.06076 10.3394 2.61518 11.1529C2.25785 11.8063 1.97565 12.3224 1.97565 13.4439C2.12155 15.2533 3.20929 16.204 8.74668 16.204C14.2535 16.204 15.3753 15.211 15.5203 13.3815C15.5177 12.3224 15.2355 11.8063 14.8782 11.1529C14.4326 10.3394 13.9285 9.41745 13.9285 7.42293C13.9285 5.06578 11.8002 2.43904 8.74668 2.43904Z" fill="#B3B3B3" stroke="#B3B3B3" stroke-width="0.4"/>
</svg>
