<svg width="18" height="22" viewBox="0 0 18 22" fill="none" xmlns="http://www.w3.org/2000/svg">
<path d="M13.9938 5.42797C13.9938 8.01739 11.9136 10.1059 9.36044 10.1059C6.80731 10.1059 4.72705 8.01739 4.72705 5.42797C4.72705 2.83856 6.80731 0.75 9.36044 0.75C11.9136 0.75 13.9938 2.83856 13.9938 5.42797Z" stroke="#B3B3B3" stroke-width="1.5"/>
<path d="M1.49609 16.5549C1.49609 14.9171 2.71476 13.5352 4.33969 13.3304L8.95312 12.7489C9.22298 12.7149 9.49605 12.7149 9.76591 12.7489L14.3793 13.3304C16.0043 13.5352 17.2229 14.9171 17.2229 16.5549V17.7121C17.2229 19.507 15.7679 20.9621 13.9729 20.9621H4.74609C2.95117 20.9621 1.49609 19.507 1.49609 17.7121V16.5549Z" stroke="#B3B3B3" stroke-width="1.5"/>
<line x1="10.7634" y1="17.0342" x2="7.95672" y2="17.0342" stroke="#B3B3B3" stroke-width="1.5" stroke-linecap="round"/>
</svg>
