<svg width="173" height="218" viewBox="0 0 173 218" fill="none" xmlns="http://www.w3.org/2000/svg">
<circle opacity="0.2" cx="67.2432" cy="83.5135" r="62.7568" fill="#6399F9"/>
<path d="M121.38 104.655C105.238 114.268 85.5461 102.941 86.4713 102.744C116.987 96.1091 119.683 76.8573 119.683 76.8573C113.591 61.972 96.9852 66.764 96.9852 66.764C96.5045 87.8879 71.3625 89.0774 71.3625 89.0774C69.7476 82.2236 69.8365 66.2208 69.8365 66.2208C62.216 60.893 60.6732 63.1544 60.6732 63.1544C63.0764 42.0065 72.754 35.1887 72.754 35.1887C74.3665 33.6867 81.5736 30.3102 85.2745 29.8728L85.4067 30.4592C85.4067 30.4592 81.6649 39.8028 88.836 40.418C94.8704 40.9467 98.2997 33.5184 99.2345 31.1609C107.081 33.5929 114.569 39.0361 119.551 48.1922C131.336 69.8544 121.38 104.655 121.38 104.655Z" fill="#2E2E2E"/>
<path d="M123.125 95.5395L162.347 121.494C169.953 126.526 168.975 137.98 160.633 141.649L114.733 161.85C110.464 163.729 105.784 164.476 101.142 164.022C96.5007 163.568 92.0541 161.927 88.2304 159.257L70.6031 146.934" stroke="#1E3348" stroke-miterlimit="10"/>
<path d="M123.125 103.909L121.805 103.035L162.354 129.859C169.96 134.891 168.982 146.345 160.64 150.014L114.74 170.215C110.471 172.093 105.791 172.841 101.149 172.387C96.5079 171.933 92.0613 170.292 88.2376 167.622L65.8256 151.66" stroke="#1E3348" stroke-miterlimit="10"/>
<path d="M157.257 140.217L115.069 158.786C111.146 160.512 106.845 161.199 102.579 160.781C98.3134 160.364 94.2271 158.856 90.7129 156.402L74.5468 145.045C76.7726 143.339 79.2668 142.015 81.9269 141.128C88.5909 138.864 95.0944 136.153 101.393 133.012C106.174 130.647 110.374 127.255 113.692 123.079C117.01 118.902 119.365 114.045 120.589 108.853C121.435 105.26 122.178 101.627 122.786 97.9737L159.915 122.517C166.903 127.141 164.921 136.847 157.257 140.217Z" fill="#EB5B65"/>
<path d="M48.5492 194.033C48.5492 194.033 55.9462 190.967 57.3641 188.655C57.3641 188.655 57.6308 193.904 56.2466 195.696C54.8624 197.489 46.5906 202.228 46.1461 201.635C45.7015 201.041 48.5492 194.033 48.5492 194.033Z" fill="#EB5B65"/>
<path d="M25.7791 206.54C25.7791 206.54 27.1249 208.366 31.9 206.54C36.6751 204.714 47.064 197.987 47.064 197.987C47.064 197.987 44.1658 205.769 43.1156 206.624C42.0654 207.48 22.2248 217.198 22.2248 217.198C22.2248 217.198 13.3547 218.46 16.6975 212.151L25.7791 206.54Z" fill="#EB5B65"/>
<path d="M54.3337 104.866C43.3992 109.122 31.8279 119.122 35.1563 146.813L36.0815 154.009" stroke="#1E3348" stroke-miterlimit="10"/>
<path d="M54.3168 86.7819C56.1048 84.2297 57.7197 81.4709 58.7098 78.5006C59.6999 75.5302 59.7504 72.3124 60.0268 69.1883C60.7622 60.8108 61.9013 53.8825 65.1335 46.0793C67.9332 39.3264 76.39 30.6269 84.8035 29.8026L85.5605 29.7378" stroke="#1E3348" stroke-miterlimit="10"/>
<path d="M75.4647 104.253C75.4239 104.135 75.383 104.025 75.3398 103.909" stroke="#1E3348" stroke-miterlimit="10"/>
<path d="M71.3625 88.5579C70.9492 86.1282 70.6416 83.7731 70.4013 81.5382C70.402 81.4961 70.3972 81.4541 70.3869 81.4132C69.1276 68.9335 70.4013 59.8543 70.4013 59.8543" stroke="#1E3348" stroke-miterlimit="10"/>
<path d="M100.756 12.8152L98.8332 13.5651C98.8332 13.6252 98.8333 14.375 98.7515 15.4252C98.6621 16.6794 98.4627 17.9233 98.1555 19.1429C98.3262 18.3114 98.5737 16.336 97.4875 14.9614C97.4706 14.9332 97.4514 14.9066 97.4298 14.882C96.7088 14.0145 95.8197 14.3582 95.1059 14.9541C94.613 15.3711 94.1826 15.8568 93.8274 16.396C93.9519 14.7905 93.664 13.1799 92.9911 11.7169C92.5523 10.719 91.9703 9.79042 91.2632 8.96051C92.3519 12.7095 90.9556 15.1632 90.9556 15.1632C87.2668 16.0308 84.7074 15.8457 82.7993 15.5165C81.1915 14.0169 81.7491 8.61685 81.7491 8.61685C80.1317 9.9386 80.5211 15.0527 80.5211 15.0527C80.3146 13.7182 80.3399 12.358 80.5956 11.032C79.7922 12.1682 79.3281 13.5091 79.257 14.8989L79.2281 14.8845C79.1166 14.8559 79.0068 14.8212 78.8989 14.7811C78.7009 14.6768 78.5091 14.5612 78.3246 14.4351L77.2599 13.7141C78.8677 5.51195 84.4887 0.35474 93.1738 1.86874C93.7407 1.96645 94.2987 2.11115 94.8416 2.30131C100.564 5.28365 100.756 12.8152 100.756 12.8152Z" fill="#EB5B65"/>
<path d="M51.1927 92.6961L49.0034 86.1066C48.9549 85.9533 48.8681 85.8146 48.7513 85.7041C48.6343 85.5935 48.4913 85.5145 48.3353 85.4746C48.3161 85.4746 48.2945 85.4746 48.2728 85.4601C48.2512 85.4457 48.2464 85.4601 48.232 85.4601C48.1815 85.4568 48.1311 85.4568 48.0806 85.4601C47.8376 85.4611 47.6043 85.5536 47.4269 85.7197C47.2491 85.8838 47.1073 86.0831 47.01 86.3049C46.9129 86.5264 46.8624 86.7658 46.8622 87.0078C46.8624 87.1972 46.8925 87.3853 46.9511 87.5653C47.4317 88.9568 48.2873 91.4681 48.6934 92.612" fill="#EB5B65"/>
<path d="M50.6976 92.6966L48.3377 85.4751C48.3185 85.4751 48.2969 85.4751 48.2752 85.4606C48.2536 85.4462 48.2488 85.4606 48.2344 85.4606L46.9968 85.2203C46.3359 85.0978 45.675 84.9656 45.0141 84.843C44.2211 84.6844 43.4232 84.5522 42.6326 84.3624C42.4459 84.3095 42.2541 84.2773 42.0606 84.2663C41.817 84.2655 41.5826 84.3595 41.407 84.5282C41.2277 84.6921 41.0847 84.892 40.9874 85.1148C40.8901 85.3374 40.8408 85.5781 40.8422 85.8211C40.841 86.0083 40.8711 86.1943 40.9311 86.3714C41.4622 87.9287 42.474 90.875 42.796 91.769L50.6976 92.6966Z" fill="#EB5B65"/>
<path d="M97.3577 59.8519C97.1174 62.5267 96.9924 65.7637 96.9083 69.8323C96.9083 78.4837 87.3437 85.6476 78.8436 87.2866L63.2567 90.8072C61.1971 91.2061 59.3731 89.9204 57.9408 89.0673C56.4677 88.1901 54.9585 87.1448 53.8963 86.3685C52.3679 85.2511 49.424 86.1499 50.0272 88.815C50.1572 89.3218 50.4025 89.7916 50.7438 90.1881C51.0853 90.5844 51.5135 90.8968 51.9954 91.1004C52.2667 91.2222 52.5462 91.3248 52.8317 91.408C52.9381 91.4347 53.0326 91.4957 53.1006 91.5818C53.1688 91.6675 53.2066 91.7735 53.2083 91.8831C53.2099 91.9927 53.1753 92.0999 53.1097 92.1878C53.0444 92.2758 52.9516 92.3395 52.8461 92.3693C51.4955 92.8355 49.0226 93.1118 45.0334 91.6483C39.9218 89.7666 39.5253 101.432 46.5137 103.462H46.5402C52.9783 105.409 59.9066 105.159 66.561 104.88C74.1173 104.594 81.6366 103.677 89.0403 102.138C92.8061 101.34 96.6752 100.511 100.121 98.8074C106.057 95.8731 110.335 92.5087 114.403 87.2721C118.969 81.4012 120.918 73.699 122.019 66.4775C123.278 58.2154 121.538 51.2389 117.109 44.128L116.946 43.8684" stroke="#1E3348" stroke-miterlimit="10"/>
<path d="M51.1927 92.6961L49.0034 86.1066C48.9549 85.9533 48.8681 85.8146 48.7513 85.7041C48.6343 85.5935 48.4913 85.5145 48.3353 85.4746C48.3161 85.4746 48.2945 85.4746 48.2728 85.4601C48.2512 85.4457 48.2464 85.4601 48.232 85.4601C48.1815 85.4568 48.1311 85.4568 48.0806 85.4601C47.8376 85.4611 47.6043 85.5536 47.4269 85.7197C47.2491 85.8838 47.1073 86.0831 47.01 86.3049C46.9129 86.5264 46.8624 86.7658 46.8622 87.0078C46.8624 87.1972 46.8925 87.3853 46.9511 87.5653C47.4317 88.9568 48.2873 91.4681 48.6934 92.612" stroke="#1E3348" stroke-miterlimit="10"/>
<path d="M48.3377 85.4751C48.3185 85.4751 48.2969 85.4751 48.2752 85.4606C48.2536 85.4462 48.2488 85.4606 48.2344 85.4606L46.9968 85.2203C46.3359 85.0978 45.675 84.9656 45.0141 84.843C44.2211 84.6844 43.4232 84.5522 42.6326 84.3624C42.4459 84.3095 42.2541 84.2773 42.0606 84.2663C41.817 84.2655 41.5826 84.3595 41.407 84.5282C41.2277 84.6921 41.0847 84.892 40.9874 85.1148C40.8901 85.3374 40.8408 85.5781 40.8422 85.8211C40.841 86.0083 40.8711 86.1943 40.9311 86.3714C41.4622 87.9287 42.474 90.875 42.796 91.769" stroke="#1E3348" stroke-miterlimit="10"/>
<path d="M78.5096 14.6624C78.5096 17.7865 79.1176 20.7737 80.6172 23.5325C81.8188 25.7482 83.5827 27.9808 86.106 28.7137C86.6652 28.875 87.2446 28.956 87.8267 28.9541C92.1091 28.9348 92.7772 23.8617 92.7772 23.8617" stroke="#1E3348" stroke-miterlimit="10"/>
<path d="M98.6073 16.4751V16.4895C98.4088 18.0396 98.0678 19.5682 97.5884 21.0555C97.0157 22.8298 96.8804 24.7163 97.1943 26.554L97.86 30.4255C97.8902 30.5981 97.9686 30.7586 98.0858 30.8886C98.2031 31.0186 98.3548 31.1131 98.5232 31.1609C106.973 33.6145 114.473 39.0289 118.837 46.8464C124.28 56.6081 125.273 68.3644 124.833 79.3229C124.446 88.8227 122.911 98.2671 120.731 107.512C119.399 113.162 116.835 118.449 113.223 122.994C109.612 127.539 105.041 131.231 99.8378 133.805C92.9906 137.224 85.9195 140.175 78.673 142.637C74.8371 143.907 71.3323 146.017 68.4136 148.811C65.495 151.606 63.2357 155.016 61.8003 158.793L44.7714 204.074C44.1456 205.746 42.9114 207.119 41.3157 207.919L24.9981 216.116C22.9376 217.148 20.5871 217.446 18.3341 216.962C17.7501 216.836 17.2174 216.537 16.8057 216.104C16.3938 215.671 16.122 215.124 16.0256 214.534C15.929 213.945 16.0124 213.34 16.2647 212.798C16.5171 212.256 16.9266 211.803 17.4401 211.498L25.7743 206.54L37.2351 148.114C38.0416 142.901 39.9675 137.926 42.8801 133.528C45.7925 129.131 49.623 125.416 54.1078 122.64C54.7057 122.276 55.3288 121.955 55.9726 121.679L80.8166 110.891" stroke="#1E3348" stroke-miterlimit="10"/>
<path d="M91.7775 1.30396C90.4493 0.987418 89.0744 0.917366 87.7209 1.09729C87.6654 1.09852 87.6101 1.10335 87.5551 1.11171" stroke="#1E3348" stroke-miterlimit="10"/>
<path d="M85.7599 29.8793C85.7599 29.8793 81.3645 39.9558 89.2253 40.4533C96.2786 40.9051 98.8669 31.3212 98.8669 31.3212" stroke="#1E3348" stroke-miterlimit="10"/>
<path d="M98.0546 19.5096C98.1051 19.3246 98.8621 16.5922 97.4154 14.8715C95.9687 13.1508 94.0077 16.1019 93.8106 16.3975C94.1951 12.1608 91.2512 8.94777 91.2512 8.94777C92.3375 12.6991 90.9388 15.1502 90.9388 15.1502C85.5629 16.4095 82.6046 15.4506 80.5066 15.0373C80.3002 13.7035 80.3264 12.3442 80.5835 11.0193C79.778 12.1525 79.3135 13.4925 79.245 14.8811H79.2113C78.4127 14.6689 77.6555 14.3236 76.9716 13.8597L75.907 13.1388C77.5171 4.93928 83.1357 -0.222739 91.8208 1.29126C100.506 2.80526 100.749 12.7929 100.749 12.7929L98.814 13.5449C98.814 13.5449 98.8308 16.8421 98.0546 19.5096Z" stroke="#1E3348" stroke-miterlimit="10"/>
<path d="M81.8788 19.0821V23.0689C81.8791 23.1175 81.8908 23.1653 81.9132 23.2083C81.9353 23.2516 81.9672 23.2888 82.0067 23.3174C82.0458 23.346 82.0913 23.3648 82.1393 23.3727C82.1871 23.3804 82.2362 23.3768 82.2825 23.3621C82.5962 23.2583 82.8843 23.0896 83.1285 22.8671" stroke="#1E3348" stroke-miterlimit="10"/>
<path d="M79.4946 22.1089C80.7522 21.6186 81.2192 19.8038 80.5374 18.0552C79.8556 16.3067 78.2834 15.2868 77.0259 15.777C75.7683 16.2673 75.3016 18.0821 75.9831 19.8307C76.6649 21.5792 78.2371 22.5991 79.4946 22.1089Z" stroke="#1E3348" stroke-miterlimit="10"/>
<path d="M87.0623 23.2494C88.3198 22.7592 88.7868 20.9443 88.105 19.1957C87.4232 17.4472 85.8513 16.4273 84.5937 16.9175C83.3359 17.4078 82.8692 19.2227 83.551 20.9712C84.2325 22.7198 85.8047 23.7397 87.0623 23.2494Z" stroke="#1E3348" stroke-miterlimit="10"/>
<path d="M80.8214 19.2888C80.8214 19.2888 81.5664 18.438 83.1285 19.4354" stroke="#1E3348" stroke-miterlimit="10"/>
<path d="M85.4067 28.4619C85.4067 28.4619 85.9474 30.2931 87.5383 36.229" stroke="#1E3348" stroke-miterlimit="10"/>
<path d="M45.5765 201.935L54.9489 196.876C55.486 196.585 55.9438 196.167 56.2826 195.659C56.6215 195.15 56.831 194.567 56.893 193.959C58.4503 178.662 57.9745 168.992 57.9745 168.992" stroke="#1E3348" stroke-miterlimit="10"/>
<path d="M37.0692 123.49L1 98.2835" stroke="#1E3348" stroke-miterlimit="10"/>
<path d="M35.0265 130.436L1 106.654" stroke="#1E3348" stroke-miterlimit="10"/>
<path d="M173 82.5242V103.16C173 104.106 172.725 105.032 172.209 105.825C171.693 106.618 170.957 107.245 170.092 107.628L144.498 118.961L136.674 130.852C136.472 131.147 136.182 131.37 135.846 131.489C135.509 131.608 135.143 131.617 134.801 131.515C134.459 131.412 134.159 131.204 133.943 130.919C133.728 130.634 133.608 130.288 133.602 129.932V123.789L130.978 124.95C130.394 125.205 129.756 125.311 129.121 125.259C128.487 125.207 127.875 124.997 127.341 124.65C126.807 124.302 126.367 123.828 126.062 123.269C125.757 122.709 125.596 122.083 125.593 121.446V104.213C125.593 102.063 126.222 99.9609 127.401 98.1643C128.581 96.3674 130.26 94.9549 132.233 94.1003L167.405 78.8521C168.014 78.5878 168.68 78.4789 169.341 78.5359C170.002 78.5926 170.639 78.813 171.194 79.1773C171.749 79.5416 172.205 80.0384 172.52 80.6226C172.835 81.2068 173 81.8602 173 82.5242Z" fill="#2E2E2E"/>
<path d="M141.604 109.496C142.865 107.064 142.524 104.386 140.842 103.514C139.161 102.643 136.776 103.908 135.515 106.34C134.254 108.772 134.595 111.45 136.277 112.322C137.958 113.193 140.343 111.928 141.604 109.496Z" fill="white"/>
<path d="M152.535 104.817C153.795 102.385 153.454 99.7071 151.773 98.8355C150.091 97.9639 147.706 99.2289 146.445 101.661C145.185 104.093 145.526 106.771 147.207 107.643C148.889 108.515 151.274 107.25 152.535 104.817Z" fill="white"/>
<path d="M163.097 99.7651C164.358 97.333 164.017 94.6547 162.336 93.7833C160.654 92.9117 158.269 94.1767 157.008 96.6087C155.748 99.0407 156.089 101.719 157.77 102.591C159.452 103.462 161.837 102.197 163.097 99.7651Z" fill="white"/>
</svg>
